<svg width="860" height="822" xmlns="http://www.w3.org/2000/svg" xmlns:xlink="http://www.w3.org/1999/xlink" xml:space="preserve" overflow="hidden"><defs><clipPath id="clip0"><rect x="3396" y="118" width="860" height="822"/></clipPath></defs><g clip-path="url(#clip0)" transform="translate(-3396 -118)"><rect x="3403" y="125" width="766" height="765" stroke="#000000" stroke-width="13.75" stroke-miterlimit="8" fill="none"/><path d="M3656.5 701.5C3656.5 690.454 3665.23 681.5 3676 681.5 3686.77 681.5 3695.5 690.454 3695.5 701.5 3695.5 712.546 3686.77 721.5 3676 721.5 3665.23 721.5 3656.5 712.546 3656.5 701.5Z" stroke="#000000" stroke-width="6.875" stroke-miterlimit="8" fill-rule="evenodd"/><path d="M3666.54 710.5 4153.46 710.5 4215.38 810.679C4225.75 831.163 4236.12 855.881 4236.5 880.599L4236.5 892.999C4236.5 913.158 4219.68 929.5 4198.93 929.5L3621.07 929.5C3600.32 929.5 3583.5 913.158 3583.5 892.999L3583.5 880.599C3583.88 855.881 3594.25 831.163 3604.62 810.679Z" stroke="#FFFFFF" stroke-width="20.625" stroke-miterlimit="8" fill="#FFFFFF" fill-rule="evenodd"/><path d="M0 0 64.8148 1.25013" stroke="#000000" stroke-width="6.875" stroke-miterlimit="8" fill="none" fill-rule="evenodd" transform="matrix(1 0 0 -1 3530.5 463.75)"/><path d="M0 0 138.12 1.25013" stroke="#000000" stroke-width="6.875" stroke-miterlimit="8" fill="none" fill-rule="evenodd" transform="matrix(1 0 0 -1 3494.5 413.75)"/><path d="M0 0 176.056 1.25013" stroke="#000000" stroke-width="6.875" stroke-miterlimit="8" fill="none" fill-rule="evenodd" transform="matrix(1 0 0 -1 3475.5 365.75)"/><path d="M0 0 185.621 1.25013" stroke="#000000" stroke-width="6.875" stroke-miterlimit="8" fill="none" fill-rule="evenodd" transform="matrix(1 0 0 -1 3470.5 315.75)"/><path d="M0 0 63.9584 1.25013" stroke="#000000" stroke-width="6.875" stroke-miterlimit="8" fill="none" fill-rule="evenodd" transform="matrix(1 0 0 -1 3531.5 168.75)"/><path d="M0 0 132.023 1.25013" stroke="#000000" stroke-width="6.875" stroke-miterlimit="8" fill="none" fill-rule="evenodd" transform="matrix(1 0 0 -1 3497.5 216.75)"/><path d="M0 20.0001C-2.48262e-15 8.95436 8.73049-2.54628e-15 19.5001-5.09256e-15 30.2697-1.01851e-14 39.0002 8.95436 39.0002 20.0001 39.0002 31.0459 30.2697 40.0002 19.5001 40.0002 8.73049 40.0002-1.24131e-14 31.0459 0 20.0001Z" stroke="#000000" stroke-width="6.875" stroke-miterlimit="8" fill-rule="evenodd" transform="matrix(1 0 0 -1 3491.5 483.5)"/><path d="M0 19.4999C-2.54628e-15 8.73041 8.95436-2.4826e-15 20.0001-4.9652e-15 31.0459-9.9304e-15 40.0002 8.73041 40.0002 19.4999 40.0002 30.2694 31.0459 38.9998 20.0001 38.9998 8.95436 38.9998-1.27314e-14 30.2694 0 19.4999Z" stroke="#000000" stroke-width="6.875" stroke-miterlimit="8" fill-rule="evenodd" transform="matrix(1 0 0 -1 3454.5 433.5)"/><path d="M0 19.9999C-2.54628e-15 8.95428 8.95436-2.54626e-15 20.0001-5.09252e-15 31.0459-1.0185e-14 40.0002 8.95428 40.0002 19.9999 40.0002 31.0456 31.0459 39.9999 20.0001 39.9999 8.95436 39.9999-1.27314e-14 31.0456 0 19.9999Z" stroke="#000000" stroke-width="6.875" stroke-miterlimit="8" fill-rule="evenodd" transform="matrix(1 0 0 -1 3435.5 385.5)"/><path d="M0 19.9999C-2.4826e-15 8.95428 8.73041-2.54626e-15 19.4999-5.09252e-15 30.2694-1.0185e-14 38.9998 8.95428 38.9998 19.9999 38.9998 31.0456 30.2694 39.9999 19.4999 39.9999 8.73041 39.9999-1.2413e-14 31.0456 0 19.9999Z" stroke="#000000" stroke-width="6.875" stroke-miterlimit="8" fill-rule="evenodd" transform="matrix(1 0 0 -1 3431.5 335.5)"/><path d="M3492.5 169C3492.5 158.23 3501.23 149.5 3512 149.5 3522.77 149.5 3531.5 158.23 3531.5 169 3531.5 179.769 3522.77 188.5 3512 188.5 3501.23 188.5 3492.5 179.769 3492.5 169Z" stroke="#000000" stroke-width="6.875" stroke-miterlimit="8" fill-rule="evenodd"/><path d="M3457.5 217C3457.5 206.231 3466.45 197.5 3477.5 197.5 3488.55 197.5 3497.5 206.231 3497.5 217 3497.5 227.77 3488.55 236.5 3477.5 236.5 3466.45 236.5 3457.5 227.77 3457.5 217Z" stroke="#000000" stroke-width="6.875" stroke-miterlimit="8" fill-rule="evenodd"/><path d="M3438.5 266.5C3438.5 255.454 3447.23 246.5 3458 246.5 3468.77 246.5 3477.5 255.454 3477.5 266.5 3477.5 277.546 3468.77 286.5 3458 286.5 3447.23 286.5 3438.5 277.546 3438.5 266.5Z" stroke="#000000" stroke-width="6.875" stroke-miterlimit="8" fill-rule="evenodd"/><path d="M0 0 171.323 1.25013" stroke="#000000" stroke-width="6.875" stroke-miterlimit="8" fill="none" fill-rule="evenodd" transform="matrix(1 0 0 -1 3477.5 265.75)"/><path d="M0 20.0001C-2.48262e-15 8.95436 8.73049-2.54628e-15 19.5001-5.09256e-15 30.2697-1.01851e-14 39.0002 8.95436 39.0002 20.0001 39.0002 31.0459 30.2697 40.0002 19.5001 40.0002 8.73049 40.0002-1.24131e-14 31.0459 0 20.0001Z" stroke="#000000" stroke-width="6.875" stroke-miterlimit="8" fill-rule="evenodd" transform="matrix(-1 0 0 1 3583.5 487.5)"/><path d="M0 20.0001C-2.4826e-15 8.95436 8.73041-2.54628e-15 19.4999-5.09256e-15 30.2694-1.01851e-14 38.9998 8.95436 38.9998 20.0001 38.9998 31.0459 30.2694 40.0002 19.4999 40.0002 8.73041 40.0002-1.2413e-14 31.0459 0 20.0001Z" stroke="#000000" stroke-width="6.875" stroke-miterlimit="8" fill-rule="evenodd" transform="matrix(1 0 0 -1 3595.5 482.5)"/><path d="M0 19.9999C-2.48262e-15 8.95428 8.73049-2.54626e-15 19.5001-5.09252e-15 30.2697-1.0185e-14 39.0002 8.95428 39.0002 19.9999 39.0002 31.0456 30.2697 39.9999 19.5001 39.9999 8.73049 39.9999-1.24131e-14 31.0456 0 19.9999Z" stroke="#000000" stroke-width="6.875" stroke-miterlimit="8" fill-rule="evenodd" transform="matrix(1 0 0 -1 3632.5 432.5)"/><path d="M0 20.0001C-2.4826e-15 8.95436 8.73041-2.54628e-15 19.4999-5.09256e-15 30.2694-1.01851e-14 38.9998 8.95436 38.9998 20.0001 38.9998 31.0459 30.2694 40.0002 19.4999 40.0002 8.73041 40.0002-1.2413e-14 31.0459 0 20.0001Z" stroke="#000000" stroke-width="6.875" stroke-miterlimit="8" fill-rule="evenodd" transform="matrix(1 0 0 -1 3651.5 384.5)"/><path d="M0 19.9999C-2.48262e-15 8.95428 8.73049-2.54626e-15 19.5001-5.09252e-15 30.2697-1.0185e-14 39.0002 8.95428 39.0002 19.9999 39.0002 31.0456 30.2697 39.9999 19.5001 39.9999 8.73049 39.9999-1.24131e-14 31.0456 0 19.9999Z" stroke="#000000" stroke-width="6.875" stroke-miterlimit="8" fill-rule="evenodd" transform="matrix(1 0 0 -1 3656.5 334.5)"/><path d="M3595.5 167.5C3595.5 156.454 3604.23 147.5 3615 147.5 3625.77 147.5 3634.5 156.454 3634.5 167.5 3634.5 178.546 3625.77 187.5 3615 187.5 3604.23 187.5 3595.5 178.546 3595.5 167.5Z" stroke="#000000" stroke-width="6.875" stroke-miterlimit="8" fill-rule="evenodd"/><path d="M3629.5 215.5C3629.5 204.454 3638.23 195.5 3649 195.5 3659.77 195.5 3668.5 204.454 3668.5 215.5 3668.5 226.546 3659.77 235.5 3649 235.5 3638.23 235.5 3629.5 226.546 3629.5 215.5Z" stroke="#000000" stroke-width="6.875" stroke-miterlimit="8" fill-rule="evenodd"/><path d="M3648.5 265C3648.5 254.23 3657.45 245.5 3668.5 245.5 3679.55 245.5 3688.5 254.23 3688.5 265 3688.5 275.77 3679.55 284.5 3668.5 284.5 3657.45 284.5 3648.5 275.77 3648.5 265Z" stroke="#000000" stroke-width="6.875" stroke-miterlimit="8" fill-rule="evenodd"/><path d="M3530.5 552.5 3595.32 553.75" stroke="#000000" stroke-width="6.875" stroke-miterlimit="8" fill="none" fill-rule="evenodd"/><path d="M3494.5 601.5 3632.62 602.75" stroke="#000000" stroke-width="6.875" stroke-miterlimit="8" fill="none" fill-rule="evenodd"/><path d="M3475.5 650.5 3651.56 651.75" stroke="#000000" stroke-width="6.875" stroke-miterlimit="8" fill="none" fill-rule="evenodd"/><path d="M3470.5 700.5 3656.12 701.75" stroke="#000000" stroke-width="6.875" stroke-miterlimit="8" fill="none" fill-rule="evenodd"/><path d="M3531.5 846.5 3595.46 847.75" stroke="#000000" stroke-width="6.875" stroke-miterlimit="8" fill="none" fill-rule="evenodd"/><path d="M3497.5 798.5 3629.52 799.75" stroke="#000000" stroke-width="6.875" stroke-miterlimit="8" fill="none" fill-rule="evenodd"/><path d="M3491.5 552.5C3491.5 541.454 3500.23 532.5 3511 532.5 3521.77 532.5 3530.5 541.454 3530.5 552.5 3530.5 563.546 3521.77 572.5 3511 572.5 3500.23 572.5 3491.5 563.546 3491.5 552.5Z" stroke="#000000" stroke-width="6.875" stroke-miterlimit="8" fill-rule="evenodd"/><path d="M3454.5 601.5C3454.5 590.454 3463.45 581.5 3474.5 581.5 3485.55 581.5 3494.5 590.454 3494.5 601.5 3494.5 612.546 3485.55 621.5 3474.5 621.5 3463.45 621.5 3454.5 612.546 3454.5 601.5Z" stroke="#000000" stroke-width="6.875" stroke-miterlimit="8" fill-rule="evenodd"/><path d="M3435.5 650.5C3435.5 639.454 3444.45 630.5 3455.5 630.5 3466.55 630.5 3475.5 639.454 3475.5 650.5 3475.5 661.546 3466.55 670.5 3455.5 670.5 3444.45 670.5 3435.5 661.546 3435.5 650.5Z" stroke="#000000" stroke-width="6.875" stroke-miterlimit="8" fill-rule="evenodd"/><path d="M3431.5 700.5C3431.5 689.454 3440.23 680.5 3451 680.5 3461.77 680.5 3470.5 689.454 3470.5 700.5 3470.5 711.546 3461.77 720.5 3451 720.5 3440.23 720.5 3431.5 711.546 3431.5 700.5Z" stroke="#000000" stroke-width="6.875" stroke-miterlimit="8" fill-rule="evenodd"/><path d="M0 19.5001C-2.4826e-15 8.73049 8.73041-2.48262e-15 19.4999-4.96525e-15 30.2694-9.93049e-15 38.9998 8.73049 38.9998 19.5001 38.9998 30.2697 30.2694 39.0002 19.4999 39.0002 8.73041 39.0002-1.2413e-14 30.2697 0 19.5001Z" stroke="#000000" stroke-width="6.875" stroke-miterlimit="8" fill-rule="evenodd" transform="matrix(1 0 0 -1 3492.5 866.5)"/><path d="M0 19.4999C-2.54628e-15 8.73041 8.95436-2.4826e-15 20.0001-4.9652e-15 31.0459-9.9304e-15 40.0002 8.73041 40.0002 19.4999 40.0002 30.2694 31.0459 38.9998 20.0001 38.9998 8.95436 38.9998-1.27314e-14 30.2694 0 19.4999Z" stroke="#000000" stroke-width="6.875" stroke-miterlimit="8" fill-rule="evenodd" transform="matrix(1 0 0 -1 3457.5 818.5)"/><path d="M0 20.0001C-2.4826e-15 8.95436 8.73041-2.54628e-15 19.4999-5.09256e-15 30.2694-1.01851e-14 38.9998 8.95436 38.9998 20.0001 38.9998 31.0459 30.2694 40.0002 19.4999 40.0002 8.73041 40.0002-1.2413e-14 31.0459 0 20.0001Z" stroke="#000000" stroke-width="6.875" stroke-miterlimit="8" fill-rule="evenodd" transform="matrix(1 0 0 -1 3438.5 769.5)"/><path d="M3477.5 749.5 3648.82 750.75" stroke="#000000" stroke-width="6.875" stroke-miterlimit="8" fill="none" fill-rule="evenodd"/><path d="M3595.5 553.5C3595.5 542.454 3604.23 533.5 3615 533.5 3625.77 533.5 3634.5 542.454 3634.5 553.5 3634.5 564.546 3625.77 573.5 3615 573.5 3604.23 573.5 3595.5 564.546 3595.5 553.5Z" stroke="#000000" stroke-width="6.875" stroke-miterlimit="8" fill-rule="evenodd"/><path d="M3632.5 603C3632.5 592.23 3641.23 583.5 3652 583.5 3662.77 583.5 3671.5 592.23 3671.5 603 3671.5 613.77 3662.77 622.5 3652 622.5 3641.23 622.5 3632.5 613.77 3632.5 603Z" stroke="#000000" stroke-width="6.875" stroke-miterlimit="8" fill-rule="evenodd"/><path d="M3651.5 651.5C3651.5 640.454 3660.23 631.5 3671 631.5 3681.77 631.5 3690.5 640.454 3690.5 651.5 3690.5 662.546 3681.77 671.5 3671 671.5 3660.23 671.5 3651.5 662.546 3651.5 651.5Z" stroke="#000000" stroke-width="6.875" stroke-miterlimit="8" fill-rule="evenodd"/><path d="M3655.54 703.5 4142.46 703.5 4204.38 803.679C4214.75 824.163 4225.12 848.881 4225.5 873.599L4225.5 886C4225.5 906.158 4208.68 922.5 4187.93 922.5L3610.07 922.5C3589.32 922.5 3572.5 906.158 3572.5 886L3572.5 873.599C3572.88 848.881 3583.25 824.163 3593.62 803.679Z" stroke="#000000" stroke-width="20.625" stroke-miterlimit="8" fill-rule="evenodd"/><path d="M3773.5 210C3773.5 197.021 3784.02 186.5 3797 186.5L4000 186.5C4012.98 186.5 4023.5 197.021 4023.5 210L4023.5 210C4023.5 222.979 4012.98 233.5 4000 233.5L3797 233.5C3784.02 233.5 3773.5 222.979 3773.5 210Z" stroke="#000000" stroke-width="20.625" stroke-miterlimit="8" fill="#FFFFFF" fill-rule="evenodd"/><path d="M3687.02 620.5 4063.41 692.129 4152.39 689.398C4173.03 722.709 4203.75 770.657 4224.38 803.969 4234.75 824.403 4245.12 849.06 4245.5 873.718L4245.5 886.088C4245.5 906.198 4228.68 922.5 4207.93 922.5L3630.12 922.5 3628.62 922.207 3592.07 922.207C3571.32 922.207 3554.5 905.905 3554.5 885.795L3554.5 873.425C3554.88 848.767 3565.25 824.109 3575.62 803.675 3596.25 770.363 3666.38 653.812 3687.02 620.5Z" stroke="#FFFFFF" stroke-width="20.625" stroke-miterlimit="8" fill="#FFFFFF" fill-rule="evenodd"/><path d="M3806.73 233.5 3989.58 233.5 3989.58 458.307 4140.5 699.5 3657.5 699.5 3806.73 461.006Z" stroke="#000000" stroke-width="20.625" stroke-miterlimit="8" fill="#FFFFFF" fill-rule="evenodd"/><path d="M3837.5 301C3837.5 283.603 3851.6 269.5 3869 269.5 3886.4 269.5 3900.5 283.603 3900.5 301 3900.5 318.397 3886.4 332.5 3869 332.5 3851.6 332.5 3837.5 318.397 3837.5 301Z" stroke="#000000" stroke-width="20.625" stroke-miterlimit="8" fill="#FFFFFF" fill-rule="evenodd"/><path d="M3898.5 439C3898.5 421.603 3912.6 407.5 3930 407.5 3947.4 407.5 3961.5 421.603 3961.5 439 3961.5 456.397 3947.4 470.5 3930 470.5 3912.6 470.5 3898.5 456.397 3898.5 439Z" stroke="#000000" stroke-width="20.625" stroke-miterlimit="8" fill="#FFFFFF" fill-rule="evenodd"/><path d="M3655.54 702.5 4142.46 702.5 4204.38 802.679C4214.75 823.163 4225.12 847.881 4225.5 872.599L4225.5 885C4225.5 905.158 4208.68 921.5 4187.93 921.5L3610.07 921.5C3589.32 921.5 3572.5 905.158 3572.5 885L3572.5 872.599C3572.88 847.881 3583.25 823.163 3593.62 802.679Z" stroke="#000000" stroke-width="20.625" stroke-miterlimit="8" fill-rule="evenodd"/><path d="M3732.5 691C3732.5 669.185 3750.18 651.5 3772 651.5 3793.82 651.5 3811.5 669.185 3811.5 691 3811.5 712.815 3793.82 730.5 3772 730.5 3750.18 730.5 3732.5 712.815 3732.5 691Z" stroke="#000000" stroke-width="20.625" stroke-miterlimit="8" fill="#FFFFFF" fill-rule="evenodd"/><path d="M0 20.0001C-2.4826e-15 8.95436 8.73041-2.54628e-15 19.4999-5.09256e-15 30.2694-1.01851e-14 38.9998 8.95436 38.9998 20.0001 38.9998 31.0459 30.2694 40.0002 19.4999 40.0002 8.73041 40.0002-1.2413e-14 31.0459 0 20.0001Z" stroke="#000000" stroke-width="6.875" stroke-miterlimit="8" fill-rule="evenodd" transform="matrix(1 0 0 -1 3595.5 868.5)"/><path d="M0 19.9999C-2.4826e-15 8.95428 8.73041-2.54626e-15 19.4999-5.09252e-15 30.2694-1.0185e-14 38.9998 8.95428 38.9998 19.9999 38.9998 31.0456 30.2694 39.9999 19.4999 39.9999 8.73041 39.9999-1.2413e-14 31.0456 0 19.9999Z" stroke="#000000" stroke-width="6.875" stroke-miterlimit="8" fill-rule="evenodd" transform="matrix(1 0 0 -1 3629.5 820.5)"/><path d="M0 19.4999C-2.54626e-15 8.73041 8.95428-2.4826e-15 19.9999-4.9652e-15 31.0456-9.9304e-15 39.9999 8.73041 39.9999 19.4999 39.9999 30.2694 31.0456 38.9998 19.9999 38.9998 8.95428 38.9998-1.27313e-14 30.2694 0 19.4999Z" stroke="#000000" stroke-width="6.875" stroke-miterlimit="8" fill-rule="evenodd" transform="matrix(1 0 0 -1 3648.5 770.5)"/><path d="M3828.5 786.5C3828.5 768.275 3843.05 753.5 3861 753.5 3878.95 753.5 3893.5 768.275 3893.5 786.5 3893.5 804.725 3878.95 819.5 3861 819.5 3843.05 819.5 3828.5 804.725 3828.5 786.5Z" stroke="#000000" stroke-width="4.58333" stroke-miterlimit="8" fill="#FFFFFF" fill-rule="evenodd"/><path d="M4035.5 792C4035.5 779.574 4046.69 769.5 4060.5 769.5 4074.31 769.5 4085.5 779.574 4085.5 792 4085.5 804.426 4074.31 814.5 4060.5 814.5 4046.69 814.5 4035.5 804.426 4035.5 792Z" stroke="#000000" stroke-width="4.58333" stroke-miterlimit="8" fill="#FFFFFF" fill-rule="evenodd"/><path d="M3665.5 863C3665.5 851.678 3674.68 842.5 3686 842.5 3697.32 842.5 3706.5 851.678 3706.5 863 3706.5 874.322 3697.32 883.5 3686 883.5 3674.68 883.5 3665.5 874.322 3665.5 863Z" stroke="#000000" stroke-width="4.58333" stroke-miterlimit="8" fill="#FFFFFF" fill-rule="evenodd"/><path d="M3949.5 899.5C3949.5 886.798 3959.57 876.5 3972 876.5 3984.43 876.5 3994.5 886.798 3994.5 899.5 3994.5 912.203 3984.43 922.5 3972 922.5 3959.57 922.5 3949.5 912.203 3949.5 899.5Z" stroke="#000000" stroke-width="4.58333" stroke-miterlimit="8" fill="#FFFFFF" fill-rule="evenodd"/><path d="M3949 690.5C3949 678.073 3959.07 668 3971.5 668 3983.93 668 3994 678.073 3994 690.5 3994 702.926 3983.93 713 3971.5 713 3959.07 713 3949 702.926 3949 690.5Z" stroke="#000000" stroke-width="13.75" stroke-miterlimit="8" fill="#FFFFFF" fill-rule="evenodd"/></g></svg>