<svg width="859" height="822" xmlns="http://www.w3.org/2000/svg" xmlns:xlink="http://www.w3.org/1999/xlink" xml:space="preserve" overflow="hidden"><defs><clipPath id="clip0"><rect x="2252" y="48" width="859" height="822"/></clipPath></defs><g clip-path="url(#clip0)" transform="translate(-2252 -48)"><rect x="2259" y="55" width="766" height="765" stroke="#000000" stroke-width="13.75" stroke-miterlimit="8" fill="none"/><path d="M2511.5 631.5C2511.5 620.454 2520.23 611.5 2531 611.5 2541.77 611.5 2550.5 620.454 2550.5 631.5 2550.5 642.546 2541.77 651.5 2531 651.5 2520.23 651.5 2511.5 642.546 2511.5 631.5Z" stroke="#000000" stroke-width="6.875" stroke-miterlimit="8" fill-rule="evenodd"/><path d="M2522.54 640.5 3009.46 640.5 3071.38 740.679C3081.75 761.163 3092.12 785.881 3092.5 810.598L3092.5 822.999C3092.5 843.158 3075.68 859.5 3054.93 859.5L2477.07 859.5C2456.32 859.5 2439.5 843.158 2439.5 822.999L2439.5 810.598C2439.88 785.881 2450.25 761.163 2460.62 740.679Z" stroke="#FFFFFF" stroke-width="20.625" stroke-miterlimit="8" fill="#FFFFFF" fill-rule="evenodd"/><path d="M0 0 64.8148 1.25013" stroke="#000000" stroke-width="6.875" stroke-miterlimit="8" fill="none" fill-rule="evenodd" transform="matrix(1 0 0 -1 2386.5 393.75)"/><path d="M0 0 138.12 1.25013" stroke="#000000" stroke-width="6.875" stroke-miterlimit="8" fill="none" fill-rule="evenodd" transform="matrix(1 0 0 -1 2349.5 343.75)"/><path d="M0 0 176.056 1.25013" stroke="#000000" stroke-width="6.875" stroke-miterlimit="8" fill="none" fill-rule="evenodd" transform="matrix(1 0 0 -1 2330.5 295.75)"/><path d="M0 0 185.621 1.25013" stroke="#000000" stroke-width="6.875" stroke-miterlimit="8" fill="none" fill-rule="evenodd" transform="matrix(1 0 0 -1 2326.5 245.75)"/><path d="M0 0 63.9584 1.25013" stroke="#000000" stroke-width="6.875" stroke-miterlimit="8" fill="none" fill-rule="evenodd" transform="matrix(1 0 0 -1 2386.5 98.7503)"/><path d="M0 0 132.023 1.25013" stroke="#000000" stroke-width="6.875" stroke-miterlimit="8" fill="none" fill-rule="evenodd" transform="matrix(1 0 0 -1 2352.5 146.75)"/><path d="M0 19.9999C-2.48262e-15 8.95428 8.73049-2.54626e-15 19.5001-5.09252e-15 30.2697-1.0185e-14 39.0002 8.95428 39.0002 19.9999 39.0002 31.0456 30.2697 39.9999 19.5001 39.9999 8.73049 39.9999-1.24131e-14 31.0456 0 19.9999Z" stroke="#000000" stroke-width="6.875" stroke-miterlimit="8" fill-rule="evenodd" transform="matrix(1 0 0 -1 2347.5 413.5)"/><path d="M0 19.4999C-2.48262e-15 8.73041 8.73049-2.4826e-15 19.5001-4.9652e-15 30.2697-9.9304e-15 39.0002 8.73041 39.0002 19.4999 39.0002 30.2694 30.2697 38.9998 19.5001 38.9998 8.73049 38.9998-1.24131e-14 30.2694 0 19.4999Z" stroke="#000000" stroke-width="6.875" stroke-miterlimit="8" fill-rule="evenodd" transform="matrix(1 0 0 -1 2310.5 363.5)"/><path d="M0 20.0001C-2.48262e-15 8.95436 8.73049-2.54628e-15 19.5001-5.09256e-15 30.2697-1.01851e-14 39.0002 8.95436 39.0002 20.0001 39.0002 31.0459 30.2697 40.0002 19.5001 40.0002 8.73049 40.0002-1.24131e-14 31.0459 0 20.0001Z" stroke="#000000" stroke-width="6.875" stroke-miterlimit="8" fill-rule="evenodd" transform="matrix(1 0 0 -1 2291.5 315.5)"/><path d="M0 19.9999C-2.54626e-15 8.95428 8.95428-2.54626e-15 19.9999-5.09252e-15 31.0456-1.0185e-14 39.9999 8.95428 39.9999 19.9999 39.9999 31.0456 31.0456 39.9999 19.9999 39.9999 8.95428 39.9999-1.27313e-14 31.0456 0 19.9999Z" stroke="#000000" stroke-width="6.875" stroke-miterlimit="8" fill-rule="evenodd" transform="matrix(1 0 0 -1 2286.5 265.5)"/><path d="M2347.5 99C2347.5 88.2304 2356.23 79.4999 2367 79.4999 2377.77 79.4999 2386.5 88.2304 2386.5 99 2386.5 109.77 2377.77 118.5 2367 118.5 2356.23 118.5 2347.5 109.77 2347.5 99Z" stroke="#000000" stroke-width="6.875" stroke-miterlimit="8" fill-rule="evenodd"/><path d="M2313.5 147C2313.5 136.23 2322.23 127.5 2333 127.5 2343.77 127.5 2352.5 136.23 2352.5 147 2352.5 157.769 2343.77 166.5 2333 166.5 2322.23 166.5 2313.5 157.769 2313.5 147Z" stroke="#000000" stroke-width="6.875" stroke-miterlimit="8" fill-rule="evenodd"/><path d="M2294.5 196.5C2294.5 185.454 2303.23 176.5 2314 176.5 2324.77 176.5 2333.5 185.454 2333.5 196.5 2333.5 207.546 2324.77 216.5 2314 216.5 2303.23 216.5 2294.5 207.546 2294.5 196.5Z" stroke="#000000" stroke-width="6.875" stroke-miterlimit="8" fill-rule="evenodd"/><path d="M0 0 171.323 1.25013" stroke="#000000" stroke-width="6.875" stroke-miterlimit="8" fill="none" fill-rule="evenodd" transform="matrix(1 0 0 -1 2333.5 195.75)"/><path d="M0 19.9999C-2.48262e-15 8.95428 8.73049-2.54626e-15 19.5001-5.09252e-15 30.2697-1.0185e-14 39.0002 8.95428 39.0002 19.9999 39.0002 31.0456 30.2697 39.9999 19.5001 39.9999 8.73049 39.9999-1.24131e-14 31.0456 0 19.9999Z" stroke="#000000" stroke-width="6.875" stroke-miterlimit="8" fill-rule="evenodd" transform="matrix(-1 0 0 1 2439.5 417.5)"/><path d="M0 19.9999C-2.4826e-15 8.95428 8.73041-2.54626e-15 19.4999-5.09252e-15 30.2694-1.0185e-14 38.9998 8.95428 38.9998 19.9999 38.9998 31.0456 30.2694 39.9999 19.4999 39.9999 8.73041 39.9999-1.2413e-14 31.0456 0 19.9999Z" stroke="#000000" stroke-width="6.875" stroke-miterlimit="8" fill-rule="evenodd" transform="matrix(1 0 0 -1 2451.5 412.5)"/><path d="M0 20.0001C-2.54628e-15 8.95436 8.95436-2.54628e-15 20.0001-5.09256e-15 31.0459-1.01851e-14 40.0002 8.95436 40.0002 20.0001 40.0002 31.0459 31.0459 40.0002 20.0001 40.0002 8.95436 40.0002-1.27314e-14 31.0459 0 20.0001Z" stroke="#000000" stroke-width="6.875" stroke-miterlimit="8" fill-rule="evenodd" transform="matrix(1 0 0 -1 2487.5 362.5)"/><path d="M0 19.9999C-2.54626e-15 8.95428 8.95428-2.54626e-15 19.9999-5.09252e-15 31.0456-1.0185e-14 39.9999 8.95428 39.9999 19.9999 39.9999 31.0456 31.0456 39.9999 19.9999 39.9999 8.95428 39.9999-1.27313e-14 31.0456 0 19.9999Z" stroke="#000000" stroke-width="6.875" stroke-miterlimit="8" fill-rule="evenodd" transform="matrix(1 0 0 -1 2506.5 314.5)"/><path d="M0 19.9999C-2.48262e-15 8.95428 8.73049-2.54626e-15 19.5001-5.09252e-15 30.2697-1.0185e-14 39.0002 8.95428 39.0002 19.9999 39.0002 31.0456 30.2697 39.9999 19.5001 39.9999 8.73049 39.9999-1.24131e-14 31.0456 0 19.9999Z" stroke="#000000" stroke-width="6.875" stroke-miterlimit="8" fill-rule="evenodd" transform="matrix(1 0 0 -1 2511.5 264.5)"/><path d="M2450.5 97.4999C2450.5 86.4542 2459.45 77.4998 2470.5 77.4998 2481.55 77.4998 2490.5 86.4542 2490.5 97.4999 2490.5 108.546 2481.55 117.5 2470.5 117.5 2459.45 117.5 2450.5 108.546 2450.5 97.4999Z" stroke="#000000" stroke-width="6.875" stroke-miterlimit="8" fill-rule="evenodd"/><path d="M2484.5 145.5C2484.5 134.454 2493.45 125.5 2504.5 125.5 2515.55 125.5 2524.5 134.454 2524.5 145.5 2524.5 156.546 2515.55 165.5 2504.5 165.5 2493.45 165.5 2484.5 156.546 2484.5 145.5Z" stroke="#000000" stroke-width="6.875" stroke-miterlimit="8" fill-rule="evenodd"/><path d="M2504.5 195C2504.5 184.231 2513.23 175.5 2524 175.5 2534.77 175.5 2543.5 184.231 2543.5 195 2543.5 205.77 2534.77 214.5 2524 214.5 2513.23 214.5 2504.5 205.77 2504.5 195Z" stroke="#000000" stroke-width="6.875" stroke-miterlimit="8" fill-rule="evenodd"/><path d="M2386.5 482.5 2451.32 483.75" stroke="#000000" stroke-width="6.875" stroke-miterlimit="8" fill="none" fill-rule="evenodd"/><path d="M2349.5 531.5 2487.62 532.75" stroke="#000000" stroke-width="6.875" stroke-miterlimit="8" fill="none" fill-rule="evenodd"/><path d="M2330.5 580.5 2506.56 581.75" stroke="#000000" stroke-width="6.875" stroke-miterlimit="8" fill="none" fill-rule="evenodd"/><path d="M2326.5 630.5 2512.12 631.75" stroke="#000000" stroke-width="6.875" stroke-miterlimit="8" fill="none" fill-rule="evenodd"/><path d="M2386.5 776.5 2450.46 777.75" stroke="#000000" stroke-width="6.875" stroke-miterlimit="8" fill="none" fill-rule="evenodd"/><path d="M2352.5 728.5 2484.52 729.75" stroke="#000000" stroke-width="6.875" stroke-miterlimit="8" fill="none" fill-rule="evenodd"/><path d="M2347.5 482.5C2347.5 471.454 2356.23 462.5 2367 462.5 2377.77 462.5 2386.5 471.454 2386.5 482.5 2386.5 493.546 2377.77 502.5 2367 502.5 2356.23 502.5 2347.5 493.546 2347.5 482.5Z" stroke="#000000" stroke-width="6.875" stroke-miterlimit="8" fill-rule="evenodd"/><path d="M2310.5 531.5C2310.5 520.454 2319.23 511.5 2330 511.5 2340.77 511.5 2349.5 520.454 2349.5 531.5 2349.5 542.546 2340.77 551.5 2330 551.5 2319.23 551.5 2310.5 542.546 2310.5 531.5Z" stroke="#000000" stroke-width="6.875" stroke-miterlimit="8" fill-rule="evenodd"/><path d="M2291.5 580.5C2291.5 569.454 2300.23 560.5 2311 560.5 2321.77 560.5 2330.5 569.454 2330.5 580.5 2330.5 591.546 2321.77 600.5 2311 600.5 2300.23 600.5 2291.5 591.546 2291.5 580.5Z" stroke="#000000" stroke-width="6.875" stroke-miterlimit="8" fill-rule="evenodd"/><path d="M2286.5 630.5C2286.5 619.454 2295.45 610.5 2306.5 610.5 2317.55 610.5 2326.5 619.454 2326.5 630.5 2326.5 641.546 2317.55 650.5 2306.5 650.5 2295.45 650.5 2286.5 641.546 2286.5 630.5Z" stroke="#000000" stroke-width="6.875" stroke-miterlimit="8" fill-rule="evenodd"/><path d="M0 19.4999C-2.48262e-15 8.73041 8.73049-2.4826e-15 19.5001-4.9652e-15 30.2697-9.9304e-15 39.0002 8.73041 39.0002 19.4999 39.0002 30.2694 30.2697 38.9998 19.5001 38.9998 8.73049 38.9998-1.24131e-14 30.2694 0 19.4999Z" stroke="#000000" stroke-width="6.875" stroke-miterlimit="8" fill-rule="evenodd" transform="matrix(1 0 0 -1 2347.5 796.5)"/><path d="M0 19.4999C-2.48262e-15 8.73041 8.73049-2.4826e-15 19.5001-4.9652e-15 30.2697-9.9304e-15 39.0002 8.73041 39.0002 19.4999 39.0002 30.2694 30.2697 38.9998 19.5001 38.9998 8.73049 38.9998-1.24131e-14 30.2694 0 19.4999Z" stroke="#000000" stroke-width="6.875" stroke-miterlimit="8" fill-rule="evenodd" transform="matrix(1 0 0 -1 2313.5 748.5)"/><path d="M0 19.9999C-2.4826e-15 8.95428 8.73041-2.54626e-15 19.4999-5.09252e-15 30.2694-1.0185e-14 38.9998 8.95428 38.9998 19.9999 38.9998 31.0456 30.2694 39.9999 19.4999 39.9999 8.73041 39.9999-1.2413e-14 31.0456 0 19.9999Z" stroke="#000000" stroke-width="6.875" stroke-miterlimit="8" fill-rule="evenodd" transform="matrix(1 0 0 -1 2294.5 699.5)"/><path d="M2333.5 679.5 2504.82 680.75" stroke="#000000" stroke-width="6.875" stroke-miterlimit="8" fill="none" fill-rule="evenodd"/><path d="M2451.5 483.5C2451.5 472.454 2460.23 463.5 2471 463.5 2481.77 463.5 2490.5 472.454 2490.5 483.5 2490.5 494.546 2481.77 503.5 2471 503.5 2460.23 503.5 2451.5 494.546 2451.5 483.5Z" stroke="#000000" stroke-width="6.875" stroke-miterlimit="8" fill-rule="evenodd"/><path d="M2487.5 533C2487.5 522.23 2496.45 513.5 2507.5 513.5 2518.55 513.5 2527.5 522.23 2527.5 533 2527.5 543.769 2518.55 552.5 2507.5 552.5 2496.45 552.5 2487.5 543.769 2487.5 533Z" stroke="#000000" stroke-width="6.875" stroke-miterlimit="8" fill-rule="evenodd"/><path d="M2506.5 581.5C2506.5 570.454 2515.45 561.5 2526.5 561.5 2537.55 561.5 2546.5 570.454 2546.5 581.5 2546.5 592.546 2537.55 601.5 2526.5 601.5 2515.45 601.5 2506.5 592.546 2506.5 581.5Z" stroke="#000000" stroke-width="6.875" stroke-miterlimit="8" fill-rule="evenodd"/><path d="M2511.54 633.5 2998.46 633.5 3060.38 733.679C3070.75 754.163 3081.12 778.881 3081.5 803.599L3081.5 815.999C3081.5 836.158 3064.68 852.5 3043.93 852.5L2466.07 852.5C2445.32 852.5 2428.5 836.158 2428.5 815.999L2428.5 803.599C2428.88 778.881 2439.25 754.163 2449.62 733.679Z" stroke="#000000" stroke-width="20.625" stroke-miterlimit="8" fill-rule="evenodd"/><path d="M2629.5 140C2629.5 127.021 2640.02 116.5 2653 116.5L2855 116.5C2867.98 116.5 2878.5 127.021 2878.5 140L2878.5 140C2878.5 152.979 2867.98 163.5 2855 163.5L2653 163.5C2640.02 163.5 2629.5 152.979 2629.5 140Z" stroke="#000000" stroke-width="20.625" stroke-miterlimit="8" fill="#FFFFFF" fill-rule="evenodd"/><path d="M2542.02 550.5 2918.41 622.129 3007.39 619.397C3028.03 652.709 3058.74 700.656 3079.38 733.968 3089.75 754.402 3100.12 779.06 3100.5 803.718L3100.5 816.088C3100.5 836.198 3083.68 852.5 3062.93 852.5L2485.12 852.5 2483.62 852.207 2447.07 852.207C2426.32 852.207 2409.5 835.905 2409.5 815.795L2409.5 803.425C2409.88 778.767 2420.25 754.109 2430.62 733.675 2451.25 700.363 2521.38 583.812 2542.02 550.5Z" stroke="#FFFFFF" stroke-width="20.625" stroke-miterlimit="8" fill="#FFFFFF" fill-rule="evenodd"/><path d="M2662.73 163.5 2845.58 163.5 2845.58 388.307 2996.5 629.5 2513.5 629.5 2662.73 391.006Z" stroke="#000000" stroke-width="20.625" stroke-miterlimit="8" fill="#FFFFFF" fill-rule="evenodd"/><path d="M2692.5 231C2692.5 213.603 2706.83 199.5 2724.5 199.5 2742.17 199.5 2756.5 213.603 2756.5 231 2756.5 248.397 2742.17 262.5 2724.5 262.5 2706.83 262.5 2692.5 248.397 2692.5 231Z" stroke="#000000" stroke-width="20.625" stroke-miterlimit="8" fill="#FFFFFF" fill-rule="evenodd"/><path d="M2753.5 369C2753.5 351.603 2767.83 337.5 2785.5 337.5 2803.17 337.5 2817.5 351.603 2817.5 369 2817.5 386.397 2803.17 400.5 2785.5 400.5 2767.83 400.5 2753.5 386.397 2753.5 369Z" stroke="#000000" stroke-width="20.625" stroke-miterlimit="8" fill="#FFFFFF" fill-rule="evenodd"/><path d="M2511.54 632.5 2998.46 632.5 3060.38 732.679C3070.75 753.163 3081.12 777.881 3081.5 802.599L3081.5 814.999C3081.5 835.158 3064.68 851.5 3043.93 851.5L2466.07 851.5C2445.32 851.5 2428.5 835.158 2428.5 814.999L2428.5 802.599C2428.88 777.881 2439.25 753.163 2449.62 732.679Z" stroke="#000000" stroke-width="20.625" stroke-miterlimit="8" fill-rule="evenodd"/><path d="M2588.5 621C2588.5 599.185 2606.18 581.5 2628 581.5 2649.82 581.5 2667.5 599.185 2667.5 621 2667.5 642.815 2649.82 660.5 2628 660.5 2606.18 660.5 2588.5 642.815 2588.5 621Z" stroke="#000000" stroke-width="20.625" stroke-miterlimit="8" fill="#FFFFFF" fill-rule="evenodd"/><path d="M0 19.9999C-2.54626e-15 8.95428 8.95428-2.54626e-15 19.9999-5.09252e-15 31.0456-1.0185e-14 39.9999 8.95428 39.9999 19.9999 39.9999 31.0456 31.0456 39.9999 19.9999 39.9999 8.95428 39.9999-1.27313e-14 31.0456 0 19.9999Z" stroke="#000000" stroke-width="6.875" stroke-miterlimit="8" fill-rule="evenodd" transform="matrix(1 0 0 -1 2450.5 798.5)"/><path d="M0 19.4999C-2.54626e-15 8.73041 8.95428-2.4826e-15 19.9999-4.9652e-15 31.0456-9.9304e-15 39.9999 8.73041 39.9999 19.4999 39.9999 30.2694 31.0456 38.9998 19.9999 38.9998 8.95428 38.9998-1.27313e-14 30.2694 0 19.4999Z" stroke="#000000" stroke-width="6.875" stroke-miterlimit="8" fill-rule="evenodd" transform="matrix(1 0 0 -1 2484.5 749.5)"/><path d="M0 19.5001C-2.4826e-15 8.73049 8.73041-2.48262e-15 19.4999-4.96525e-15 30.2694-9.93049e-15 38.9998 8.73049 38.9998 19.5001 38.9998 30.2697 30.2694 39.0002 19.4999 39.0002 8.73041 39.0002-1.2413e-14 30.2697 0 19.5001Z" stroke="#000000" stroke-width="6.875" stroke-miterlimit="8" fill-rule="evenodd" transform="matrix(1 0 0 -1 2504.5 700.5)"/><path d="M2684.5 716.5C2684.5 698.274 2699.05 683.5 2717 683.5 2734.95 683.5 2749.5 698.274 2749.5 716.5 2749.5 734.725 2734.95 749.5 2717 749.5 2699.05 749.5 2684.5 734.725 2684.5 716.5Z" stroke="#000000" stroke-width="4.58333" stroke-miterlimit="8" fill="#FFFFFF" fill-rule="evenodd"/><path d="M2891.5 722C2891.5 709.574 2902.47 699.5 2916 699.5 2929.53 699.5 2940.5 709.574 2940.5 722 2940.5 734.427 2929.53 744.5 2916 744.5 2902.47 744.5 2891.5 734.427 2891.5 722Z" stroke="#000000" stroke-width="4.58333" stroke-miterlimit="8" fill="#FFFFFF" fill-rule="evenodd"/><path d="M2521.5 793C2521.5 781.678 2530.45 772.5 2541.5 772.5 2552.55 772.5 2561.5 781.678 2561.5 793 2561.5 804.322 2552.55 813.5 2541.5 813.5 2530.45 813.5 2521.5 804.322 2521.5 793Z" stroke="#000000" stroke-width="4.58333" stroke-miterlimit="8" fill="#FFFFFF" fill-rule="evenodd"/><path d="M2804.5 829.5C2804.5 816.797 2814.57 806.5 2827 806.5 2839.43 806.5 2849.5 816.797 2849.5 829.5 2849.5 842.203 2839.43 852.5 2827 852.5 2814.57 852.5 2804.5 842.203 2804.5 829.5Z" stroke="#000000" stroke-width="4.58333" stroke-miterlimit="8" fill="#FFFFFF" fill-rule="evenodd"/><path d="M2805 620.5C2805 608.074 2815.07 598 2827.5 598 2839.93 598 2850 608.074 2850 620.5 2850 632.927 2839.93 643 2827.5 643 2815.07 643 2805 632.927 2805 620.5Z" stroke="#000000" stroke-width="13.75" stroke-miterlimit="8" fill="#FFFFFF" fill-rule="evenodd"/></g></svg>