<svg width="2620" height="1535" xmlns="http://www.w3.org/2000/svg" xmlns:xlink="http://www.w3.org/1999/xlink" xml:space="preserve" overflow="hidden"><defs><clipPath id="clip0"><rect x="911" y="550" width="2620" height="1535"/></clipPath></defs><g clip-path="url(#clip0)" transform="translate(-911 -550)"><path d="M2195 586.125 3097.74 586.125 3097.74 599.875 2195 599.875ZM3090.87 572.375 3132.12 593 3090.87 613.625Z" fill="#548235"/><path d="M2.64762e-06-6.875 902.745-6.87465 902.745 6.87535-2.64762e-06 6.875ZM895.87-20.6247 937.12 0.000360892 895.87 20.6253Z" fill="#C55A11" transform="matrix(-1 0 0 1 2941.12 668)"/><path d="M2216 598 2216 663.67" stroke="#000000" stroke-width="10.3125" stroke-miterlimit="8" fill="none" fill-rule="evenodd"/><path d="M2261 598 2261 663.67" stroke="#000000" stroke-width="10.3125" stroke-miterlimit="8" fill="none" fill-rule="evenodd"/><path d="M2286 598 2286 663.67" stroke="#000000" stroke-width="10.3125" stroke-miterlimit="8" fill="none" fill-rule="evenodd"/><path d="M2312 598 2312 663.67" stroke="#000000" stroke-width="10.3125" stroke-miterlimit="8" fill="none" fill-rule="evenodd"/><path d="M2474 598 2474 663.67" stroke="#000000" stroke-width="10.3125" stroke-miterlimit="8" fill="none" fill-rule="evenodd"/><path d="M2496 598 2496 663.67" stroke="#000000" stroke-width="10.3125" stroke-miterlimit="8" fill="none" fill-rule="evenodd"/><path d="M2548 598 2548 663.67" stroke="#000000" stroke-width="10.3125" stroke-miterlimit="8" fill="none" fill-rule="evenodd"/><path d="M2643 598 2643 663.67" stroke="#000000" stroke-width="10.3125" stroke-miterlimit="8" fill="none" fill-rule="evenodd"/><path d="M2579 598 2579 663.67" stroke="#000000" stroke-width="10.3125" stroke-miterlimit="8" fill="none" fill-rule="evenodd"/><path d="M2610 598 2610 663.67" stroke="#000000" stroke-width="10.3125" stroke-miterlimit="8" fill="none" fill-rule="evenodd"/><path d="M2715 598 2715 663.67" stroke="#000000" stroke-width="10.3125" stroke-miterlimit="8" fill="none" fill-rule="evenodd"/><path d="M2741 598 2741 663.67" stroke="#000000" stroke-width="10.3125" stroke-miterlimit="8" fill="none" fill-rule="evenodd"/><path d="M2765 598 2765 663.67" stroke="#000000" stroke-width="10.3125" stroke-miterlimit="8" fill="none" fill-rule="evenodd"/><path d="M2788 598 2788 663.67" stroke="#000000" stroke-width="10.3125" stroke-miterlimit="8" fill="none" fill-rule="evenodd"/><path d="M2840 598 2840 663.67" stroke="#000000" stroke-width="10.3125" stroke-miterlimit="8" fill="none" fill-rule="evenodd"/><path d="M2857 598 2857 663.67" stroke="#000000" stroke-width="10.3125" stroke-miterlimit="8" fill="none" fill-rule="evenodd"/><path d="M2873 598 2873 663.67" stroke="#000000" stroke-width="10.3125" stroke-miterlimit="8" fill="none" fill-rule="evenodd"/><path d="M2898 598 2898 663.67" stroke="#000000" stroke-width="10.3125" stroke-miterlimit="8" fill="none" fill-rule="evenodd"/><path d="M2352 597 2352 662.67" stroke="#000000" stroke-width="10.3125" stroke-miterlimit="8" fill="none" fill-rule="evenodd"/><path d="M2377 597 2377 662.67" stroke="#000000" stroke-width="10.3125" stroke-miterlimit="8" fill="none" fill-rule="evenodd"/><path d="M2403 597 2403 662.67" stroke="#000000" stroke-width="10.3125" stroke-miterlimit="8" fill="none" fill-rule="evenodd"/><path d="M1659 965.125 2003.81 965.125 2003.81 978.875 1659 978.875ZM1996.93 951.375 2038.18 972 1996.93 992.625Z" fill="#548235"/><path d="M6.54338e-06-6.875 344.807-6.87467 344.807 6.87533-6.54338e-06 6.875ZM337.932-20.6247 379.182 0.000360892 337.932 20.6253Z" fill="#C55A11" transform="matrix(-1 0 0 1 2179.18 1036)"/><path d="M1942 1100.12 2286.81 1100.13 2286.81 1113.88 1942 1113.87ZM2279.93 1086.38 2321.18 1107 2279.93 1127.63Z" fill="#548235"/><path d="M6.54338e-06-6.875 344.807-6.87467 344.807 6.87533-6.54338e-06 6.875ZM337.932-20.6247 379.182 0.000360892 337.932 20.6253Z" fill="#C55A11" transform="matrix(-1 0 0 1 2440.18 1181)"/><path d="M2237 1241.13 2581.81 1241.13 2581.81 1254.88 2237 1254.88ZM2574.93 1227.38 2616.18 1248 2574.93 1268.63Z" fill="#548235"/><path d="M3098 1171.12 3442.81 1171.13 3442.81 1184.88 3098 1184.88ZM3435.93 1157.38 3477.18 1178 3435.93 1198.63Z" fill="#548235"/><path d="M2998 1029.13 3342.81 1029.13 3342.81 1042.88 2998 1042.88ZM3335.93 1015.38 3377.18 1036 3335.93 1056.63Z" fill="#548235"/><path d="M6.54338e-06-6.875 344.807-6.87467 344.807 6.87533-6.54338e-06 6.875ZM337.932-20.6247 379.182 0.000360892 337.932 20.6253Z" fill="#C55A11" transform="matrix(-1 0 0 1 3146.18 1107)"/><path d="M6.54338e-06-6.875 344.807-6.87467 344.807 6.87533-6.54338e-06 6.875ZM337.932-20.6247 379.182 0.000360892 337.932 20.6253Z" fill="#C55A11" transform="matrix(-1 0 0 1 3316.18 1247)"/><path d="M1647 1545.12 1991.81 1545.13 1991.81 1558.88 1647 1558.88ZM1984.93 1531.38 2026.18 1552 1984.93 1572.63Z" fill="#548235"/><path d="M6.54338e-06-6.875 344.807-6.87467 344.807 6.87533-6.54338e-06 6.875ZM337.932-20.6247 379.182 0.000360892 337.932 20.6253Z" fill="#C55A11" transform="matrix(-1 0 0 1 2168.18 1617)"/><path d="M1931 1680.13 2275.81 1680.13 2275.81 1693.88 1931 1693.88ZM2268.93 1666.38 2310.18 1687 2268.93 1707.63Z" fill="#548235"/><path d="M6.54338e-06-6.875 344.807-6.87467 344.807 6.87533-6.54338e-06 6.875ZM337.932-20.6247 379.182 0.000360892 337.932 20.6253Z" fill="#C55A11" transform="matrix(-1 0 0 1 2429.18 1761)"/><path d="M2226 1821.13 2570.81 1821.13 2570.81 1834.88 2226 1834.88ZM2563.93 1807.38 2605.18 1828 2563.93 1848.63Z" fill="#548235"/><path d="M3087 1752.12 3431.81 1752.13 3431.81 1765.88 3087 1765.88ZM3424.93 1738.38 3466.18 1759 3424.93 1779.63Z" fill="#548235"/><path d="M2987 1610.12 3331.81 1610.13 3331.81 1623.88 2987 1623.88ZM3324.93 1596.38 3366.18 1617 3324.93 1637.63Z" fill="#548235"/><path d="M6.54338e-06-6.875 344.807-6.87467 344.807 6.87533-6.54338e-06 6.875ZM337.932-20.6247 379.182 0.000360892 337.932 20.6253Z" fill="#C55A11" transform="matrix(-1 0 0 1 3135.18 1687)"/><path d="M6.54338e-06-6.875 344.807-6.87467 344.807 6.87533-6.54338e-06 6.875ZM337.932-20.6247 379.182 0.000360892 337.932 20.6253Z" fill="#C55A11" transform="matrix(-1 0 0 1 3305.18 1827)"/><path d="M1715 1956.13 2587.21 1956.13 2587.21 1969.88 1715 1969.88ZM2580.34 1942.38 2621.59 1963 2580.34 1983.63Z" fill="#FF0000"/><path d="M2766 1956.13 3453.96 1956.13 3453.96 1969.88 2766 1969.88ZM3447.08 1942.38 3488.33 1963 3447.08 1983.63Z" fill="#FF0000"/><path d="M2349.03 2017C2350.54 2017 2352.01 2017.14 2353.44 2017.43 2354.87 2017.71 2356.19 2018.07 2357.4 2018.51 2358.62 2018.94 2359.7 2019.44 2360.64 2020.01 2361.59 2020.58 2362.24 2021.05 2362.6 2021.42 2362.97 2021.79 2363.2 2022.06 2363.31 2022.25 2363.42 2022.44 2363.51 2022.67 2363.58 2022.93 2363.64 2023.18 2363.7 2023.49 2363.74 2023.84 2363.78 2024.19 2363.8 2024.62 2363.8 2025.1 2363.8 2025.65 2363.77 2026.11 2363.72 2026.49 2363.66 2026.87 2363.58 2027.19 2363.47 2027.45 2363.36 2027.7 2363.23 2027.89 2363.09 2028.02 2362.94 2028.14 2362.75 2028.2 2362.54 2028.2 2362.16 2028.2 2361.63 2027.93 2360.95 2027.41 2360.27 2026.88 2359.4 2026.29 2358.32 2025.65 2357.25 2025.02 2355.95 2024.43 2354.42 2023.9 2352.89 2023.37 2351.05 2023.11 2348.91 2023.11 2346.57 2023.11 2344.45 2023.58 2342.54 2024.51 2340.63 2025.45 2338.99 2026.83 2337.64 2028.65 2336.28 2030.47 2335.23 2032.69 2334.48 2035.31 2333.74 2037.93 2333.37 2040.92 2333.37 2044.29 2333.37 2047.62 2333.72 2050.58 2334.44 2053.14 2335.16 2055.71 2336.19 2057.85 2337.54 2059.58 2338.88 2061.3 2340.53 2062.6 2342.48 2063.49 2344.43 2064.37 2346.64 2064.81 2349.11 2064.81 2351.2 2064.81 2353.02 2064.55 2354.58 2064.04 2356.14 2063.52 2357.47 2062.94 2358.57 2062.31 2359.67 2061.67 2360.57 2061.09 2361.27 2060.57 2361.98 2060.06 2362.54 2059.8 2362.94 2059.8 2363.13 2059.8 2363.29 2059.84 2363.43 2059.92 2363.57 2060 2363.67 2060.16 2363.76 2060.39 2363.84 2060.62 2363.9 2060.94 2363.94 2061.35 2363.98 2061.76 2364 2062.27 2364 2062.9 2364 2063.33 2363.99 2063.71 2363.96 2064.04 2363.93 2064.36 2363.89 2064.65 2363.82 2064.89 2363.75 2065.14 2363.66 2065.35 2363.55 2065.54 2363.45 2065.73 2363.26 2065.96 2362.99 2066.24 2362.72 2066.51 2362.15 2066.92 2361.29 2067.48 2360.43 2068.03 2359.35 2068.58 2358.07 2069.11 2356.79 2069.64 2355.32 2070.08 2353.66 2070.45 2352 2070.82 2350.19 2071 2348.22 2071 2344.82 2071 2341.75 2070.43 2339.01 2069.29 2336.27 2068.15 2333.94 2066.47 2332.01 2064.24 2330.08 2062.01 2328.6 2059.26 2327.56 2055.99 2326.52 2052.72 2326 2048.95 2326 2044.69 2326 2040.32 2326.56 2036.43 2327.68 2033 2328.8 2029.58 2330.37 2026.69 2332.39 2024.31 2334.42 2021.93 2336.84 2020.12 2339.66 2018.87 2342.48 2017.62 2345.6 2017 2349.03 2017Z" fill-rule="evenodd"/><path d="M2388.87 2031C2391.91 2031 2394.56 2031.44 2396.83 2032.33 2399.09 2033.22 2400.97 2034.52 2402.48 2036.22 2403.99 2037.92 2405.12 2039.98 2405.87 2042.41 2406.62 2044.83 2407 2047.57 2407 2050.62 2407 2053.58 2406.6 2056.31 2405.81 2058.81 2405.01 2061.3 2403.83 2063.45 2402.25 2065.26 2400.68 2067.06 2398.7 2068.47 2396.33 2069.48 2393.96 2070.49 2391.21 2071 2388.09 2071 2385.05 2071 2382.4 2070.56 2380.13 2069.67 2377.87 2068.78 2375.99 2067.48 2374.48 2065.78 2372.97 2064.08 2371.85 2062.02 2371.11 2059.59 2370.37 2057.17 2370 2054.42 2370 2051.34 2370 2048.38 2370.39 2045.65 2371.17 2043.15 2371.95 2040.66 2373.13 2038.51 2374.71 2036.7 2376.28 2034.9 2378.25 2033.49 2380.61 2032.5 2382.96 2031.5 2385.72 2031 2388.87 2031ZM2388.6 2036.58C2386.58 2036.58 2384.85 2036.93 2383.4 2037.63 2381.95 2038.33 2380.75 2039.32 2379.81 2040.61 2378.87 2041.89 2378.17 2043.4 2377.71 2045.16 2377.26 2046.91 2377.03 2048.82 2377.03 2050.9 2377.03 2052.89 2377.22 2054.77 2377.59 2056.52 2377.96 2058.27 2378.59 2059.8 2379.46 2061.11 2380.33 2062.42 2381.5 2063.46 2382.96 2064.23 2384.43 2064.99 2386.25 2065.38 2388.44 2065.38 2390.43 2065.38 2392.16 2065.03 2393.62 2064.33 2395.09 2063.63 2396.29 2062.64 2397.23 2061.37 2398.17 2060.11 2398.86 2058.6 2399.31 2056.84 2399.75 2055.09 2399.97 2053.16 2399.97 2051.06 2399.97 2049.09 2399.78 2047.23 2399.41 2045.48 2399.04 2043.73 2398.42 2042.19 2397.56 2040.87 2396.71 2039.55 2395.54 2038.5 2394.08 2037.73 2392.61 2036.97 2390.79 2036.58 2388.6 2036.58Z" fill-rule="evenodd"/><path d="M2436.12 2031C2438.52 2031 2440.54 2031.41 2442.18 2032.22 2443.82 2033.03 2445.15 2034.12 2446.16 2035.48 2447.17 2036.83 2447.9 2038.43 2448.34 2040.25 2448.78 2042.08 2449 2044.27 2449 2046.82L2449 2068.76C2449 2068.97 2448.95 2069.15 2448.84 2069.3 2448.73 2069.45 2448.56 2069.57 2448.32 2069.68 2448.08 2069.79 2447.75 2069.87 2447.32 2069.92 2446.89 2069.97 2446.36 2070 2445.72 2070 2445.05 2070 2444.51 2069.97 2444.08 2069.92 2443.65 2069.87 2443.32 2069.79 2443.08 2069.68 2442.84 2069.57 2442.67 2069.45 2442.56 2069.3 2442.45 2069.15 2442.4 2068.97 2442.4 2068.76L2442.4 2047.7C2442.4 2045.65 2442.24 2044 2441.92 2042.75 2441.6 2041.5 2441.13 2040.42 2440.52 2039.51 2439.91 2038.61 2439.11 2037.91 2438.14 2037.43 2437.17 2036.95 2436.04 2036.71 2434.76 2036.71 2433.11 2036.71 2431.45 2037.3 2429.8 2038.47 2428.15 2039.64 2426.41 2041.36 2424.6 2043.63L2424.6 2068.76C2424.6 2068.97 2424.55 2069.15 2424.44 2069.3 2424.33 2069.45 2424.16 2069.57 2423.92 2069.68 2423.68 2069.79 2423.35 2069.87 2422.92 2069.92 2422.49 2069.97 2421.95 2070 2421.28 2070 2420.64 2070 2420.11 2069.97 2419.68 2069.92 2419.25 2069.87 2418.91 2069.79 2418.66 2069.68 2418.41 2069.57 2418.23 2069.45 2418.14 2069.3 2418.05 2069.15 2418 2068.97 2418 2068.76L2418 2032.8C2418 2032.58 2418.04 2032.41 2418.12 2032.26 2418.2 2032.11 2418.36 2031.98 2418.6 2031.86 2418.84 2031.74 2419.15 2031.66 2419.52 2031.62 2419.89 2031.58 2420.39 2031.56 2421 2031.56 2421.59 2031.56 2422.07 2031.58 2422.46 2031.62 2422.85 2031.66 2423.15 2031.74 2423.36 2031.86 2423.57 2031.98 2423.73 2032.11 2423.82 2032.26 2423.91 2032.41 2423.96 2032.58 2423.96 2032.8L2423.96 2037.55C2425.99 2035.29 2428.01 2033.63 2430.02 2032.58 2432.03 2031.53 2434.07 2031 2436.12 2031Z" fill-rule="evenodd"/><path d="M2473.29 2031C2474.27 2031 2475.24 2031.08 2476.22 2031.24 2477.2 2031.4 2478.09 2031.61 2478.88 2031.85 2479.67 2032.09 2480.34 2032.35 2480.9 2032.64 2481.46 2032.92 2481.88 2033.17 2482.16 2033.39 2482.45 2033.6 2482.64 2033.79 2482.73 2033.95 2482.83 2034.11 2482.9 2034.3 2482.94 2034.5 2482.98 2034.7 2483.02 2034.95 2483.06 2035.25 2483.1 2035.54 2483.12 2035.91 2483.12 2036.34 2483.12 2036.8 2483.1 2037.19 2483.06 2037.53 2483.02 2037.87 2482.95 2038.15 2482.86 2038.36 2482.76 2038.58 2482.65 2038.73 2482.51 2038.83 2482.37 2038.92 2482.22 2038.97 2482.06 2038.97 2481.82 2038.97 2481.46 2038.82 2481 2038.52 2480.54 2038.23 2479.94 2037.91 2479.2 2037.57 2478.47 2037.24 2477.61 2036.92 2476.61 2036.62 2475.62 2036.33 2474.48 2036.18 2473.2 2036.18 2472.06 2036.18 2471.05 2036.3 2470.18 2036.56 2469.31 2036.82 2468.6 2037.18 2468.04 2037.65 2467.48 2038.12 2467.06 2038.68 2466.78 2039.33 2466.49 2039.98 2466.35 2040.68 2466.35 2041.43 2466.35 2042.49 2466.62 2043.37 2467.16 2044.08 2467.71 2044.8 2468.41 2045.43 2469.29 2045.96 2470.16 2046.5 2471.15 2046.99 2472.26 2047.42 2473.38 2047.85 2474.52 2048.3 2475.67 2048.76 2476.83 2049.21 2477.97 2049.73 2479.1 2050.29 2480.23 2050.86 2481.23 2051.55 2482.1 2052.35 2482.97 2053.16 2483.67 2054.13 2484.2 2055.27 2484.73 2056.4 2485 2057.75 2485 2059.31 2485 2061.17 2484.65 2062.83 2483.96 2064.29 2483.27 2065.74 2482.28 2066.97 2481 2067.97 2479.72 2068.96 2478.2 2069.72 2476.43 2070.23 2474.66 2070.74 2472.71 2071 2470.59 2071 2469.29 2071 2468.04 2070.9 2466.86 2070.7 2465.67 2070.49 2464.61 2070.24 2463.67 2069.93 2462.73 2069.62 2461.94 2069.29 2461.29 2068.96 2460.63 2068.62 2460.16 2068.32 2459.86 2068.05 2459.56 2067.78 2459.34 2067.4 2459.2 2066.92 2459.07 2066.43 2459 2065.77 2459 2064.93 2459 2064.42 2459.03 2063.99 2459.08 2063.64 2459.14 2063.29 2459.2 2063.01 2459.29 2062.79 2459.37 2062.57 2459.48 2062.42 2459.63 2062.32 2459.78 2062.23 2459.95 2062.18 2460.14 2062.18 2460.44 2062.18 2460.88 2062.36 2461.47 2062.73 2462.05 2063.09 2462.78 2063.49 2463.63 2063.92 2464.49 2064.35 2465.5 2064.75 2466.67 2065.12 2467.84 2065.48 2469.19 2065.66 2470.71 2065.66 2471.86 2065.66 2472.89 2065.54 2473.82 2065.3 2474.74 2065.05 2475.54 2064.7 2476.22 2064.23 2476.9 2063.75 2477.43 2063.15 2477.8 2062.43 2478.16 2061.7 2478.35 2060.83 2478.35 2059.84 2478.35 2058.81 2478.08 2057.95 2477.55 2057.25 2477.02 2056.55 2476.32 2055.93 2475.45 2055.39 2474.58 2054.85 2473.6 2054.37 2472.51 2053.95 2471.42 2053.53 2470.3 2053.1 2469.14 2052.64 2467.99 2052.18 2466.86 2051.66 2465.75 2051.08 2464.65 2050.5 2463.67 2049.79 2462.8 2048.96 2461.92 2048.12 2461.22 2047.12 2460.69 2045.96 2460.16 2044.81 2459.9 2043.42 2459.9 2041.8 2459.9 2040.37 2460.18 2039 2460.73 2037.69 2461.29 2036.39 2462.13 2035.24 2463.24 2034.26 2464.36 2033.27 2465.75 2032.48 2467.43 2031.89 2469.1 2031.3 2471.05 2031 2473.29 2031Z" fill-rule="evenodd"/><path d="M2508.22 2031C2511.03 2031 2513.43 2031.46 2515.41 2032.38 2517.39 2033.29 2519.02 2034.53 2520.29 2036.08 2521.57 2037.63 2522.51 2039.45 2523.1 2041.54 2523.7 2043.63 2524 2045.86 2524 2048.23L2524 2049.44C2524 2050.49 2523.74 2051.24 2523.22 2051.69 2522.7 2052.13 2522.11 2052.35 2521.44 2052.35L2497.82 2052.35C2497.82 2054.38 2498.02 2056.2 2498.42 2057.82 2498.82 2059.43 2499.48 2060.82 2500.42 2061.98 2501.35 2063.14 2502.57 2064.03 2504.06 2064.65 2505.56 2065.27 2507.39 2065.58 2509.55 2065.58 2511.26 2065.58 2512.78 2065.44 2514.12 2065.16 2515.45 2064.87 2516.6 2064.56 2517.58 2064.21 2518.55 2063.85 2519.36 2063.54 2519.98 2063.26 2520.61 2062.97 2521.08 2062.83 2521.4 2062.83 2521.59 2062.83 2521.76 2062.88 2521.91 2062.97 2522.05 2063.07 2522.17 2063.21 2522.25 2063.4 2522.33 2063.59 2522.39 2063.85 2522.43 2064.19 2522.47 2064.52 2522.49 2064.93 2522.49 2065.42 2522.49 2065.77 2522.47 2066.07 2522.45 2066.33 2522.42 2066.58 2522.39 2066.81 2522.35 2067.02 2522.31 2067.22 2522.24 2067.4 2522.15 2067.56 2522.05 2067.72 2521.93 2067.88 2521.79 2068.03 2521.64 2068.18 2521.21 2068.42 2520.49 2068.76 2519.78 2069.09 2518.85 2069.42 2517.7 2069.75 2516.56 2070.07 2515.24 2070.36 2513.74 2070.62 2512.24 2070.87 2510.64 2071 2508.93 2071 2505.99 2071 2503.4 2070.58 2501.18 2069.75 2498.96 2068.91 2497.1 2067.67 2495.58 2066.03 2494.07 2064.38 2492.93 2062.32 2492.16 2059.84 2491.39 2057.36 2491 2054.47 2491 2051.18 2491 2048.05 2491.4 2045.24 2492.2 2042.75 2492.99 2040.25 2494.14 2038.14 2495.64 2036.4 2497.14 2034.66 2498.96 2033.33 2501.08 2032.4 2503.21 2031.46 2505.59 2031 2508.22 2031ZM2507.88 2036.22C2506.25 2036.22 2504.82 2036.53 2503.59 2037.15 2502.36 2037.77 2501.33 2038.59 2500.5 2039.61 2499.67 2040.64 2499.03 2041.83 2498.58 2043.19 2498.12 2044.56 2497.87 2045.98 2497.82 2047.46L2517.38 2047.46C2517.46 2043.96 2516.7 2041.21 2515.08 2039.21 2513.46 2037.21 2511.06 2036.22 2507.88 2036.22Z" fill-rule="evenodd"/><path d="M2552.7 2031C2555.18 2031 2557.27 2031.41 2558.96 2032.22 2560.65 2033.03 2562.02 2034.12 2563.07 2035.48 2564.11 2036.83 2564.86 2038.43 2565.32 2040.25 2565.77 2042.08 2566 2044.27 2566 2046.82L2566 2068.76C2566 2068.97 2565.95 2069.15 2565.83 2069.3 2565.73 2069.45 2565.55 2069.57 2565.3 2069.68 2565.05 2069.79 2564.71 2069.87 2564.27 2069.92 2563.83 2069.97 2563.28 2070 2562.61 2070 2561.93 2070 2561.36 2069.97 2560.92 2069.92 2560.48 2069.87 2560.14 2069.79 2559.89 2069.68 2559.64 2069.57 2559.46 2069.45 2559.35 2069.3 2559.24 2069.15 2559.19 2068.97 2559.19 2068.76L2559.19 2047.7C2559.19 2045.65 2559.02 2044 2558.69 2042.75 2558.36 2041.5 2557.88 2040.42 2557.25 2039.51 2556.61 2038.61 2555.79 2037.91 2554.79 2037.43 2553.78 2036.95 2552.62 2036.71 2551.3 2036.71 2549.59 2036.71 2547.89 2037.3 2546.18 2038.47 2544.47 2039.64 2542.69 2041.36 2540.81 2043.63L2540.81 2068.76C2540.81 2068.97 2540.76 2069.15 2540.65 2069.3 2540.54 2069.45 2540.36 2069.57 2540.11 2069.68 2539.86 2069.79 2539.52 2069.87 2539.08 2069.92 2538.64 2069.97 2538.07 2070 2537.39 2070 2536.73 2070 2536.18 2069.97 2535.73 2069.92 2535.29 2069.87 2534.94 2069.79 2534.68 2069.68 2534.42 2069.57 2534.24 2069.45 2534.14 2069.3 2534.05 2069.15 2534 2068.97 2534 2068.76L2534 2032.8C2534 2032.58 2534.04 2032.41 2534.12 2032.26 2534.21 2032.11 2534.37 2031.98 2534.62 2031.86 2534.87 2031.74 2535.18 2031.66 2535.57 2031.62 2535.95 2031.58 2536.46 2031.56 2537.1 2031.56 2537.7 2031.56 2538.21 2031.58 2538.6 2031.62 2539 2031.66 2539.31 2031.74 2539.53 2031.86 2539.75 2031.98 2539.91 2032.11 2540.01 2032.26 2540.1 2032.41 2540.15 2032.58 2540.15 2032.8L2540.15 2037.55C2542.24 2035.29 2544.33 2033.63 2546.41 2032.58 2548.49 2031.53 2550.59 2031 2552.7 2031Z" fill-rule="evenodd"/><path d="M2590.29 2031C2591.27 2031 2592.24 2031.08 2593.22 2031.24 2594.2 2031.4 2595.09 2031.61 2595.88 2031.85 2596.67 2032.09 2597.34 2032.35 2597.9 2032.64 2598.46 2032.92 2598.88 2033.17 2599.16 2033.39 2599.45 2033.6 2599.64 2033.79 2599.73 2033.95 2599.83 2034.11 2599.9 2034.3 2599.94 2034.5 2599.98 2034.7 2600.02 2034.95 2600.06 2035.25 2600.1 2035.54 2600.12 2035.91 2600.12 2036.34 2600.12 2036.8 2600.1 2037.19 2600.06 2037.53 2600.02 2037.87 2599.95 2038.15 2599.86 2038.36 2599.76 2038.58 2599.65 2038.73 2599.51 2038.83 2599.37 2038.92 2599.22 2038.97 2599.06 2038.97 2598.82 2038.97 2598.46 2038.82 2598 2038.52 2597.54 2038.23 2596.94 2037.91 2596.2 2037.57 2595.47 2037.24 2594.61 2036.92 2593.61 2036.62 2592.62 2036.33 2591.48 2036.18 2590.2 2036.18 2589.06 2036.18 2588.05 2036.3 2587.18 2036.56 2586.31 2036.82 2585.6 2037.18 2585.04 2037.65 2584.48 2038.12 2584.06 2038.68 2583.78 2039.33 2583.49 2039.98 2583.35 2040.68 2583.35 2041.43 2583.35 2042.49 2583.62 2043.37 2584.16 2044.08 2584.71 2044.8 2585.41 2045.43 2586.29 2045.96 2587.16 2046.5 2588.15 2046.99 2589.26 2047.42 2590.38 2047.85 2591.52 2048.3 2592.67 2048.76 2593.83 2049.21 2594.97 2049.73 2596.1 2050.29 2597.23 2050.86 2598.23 2051.55 2599.1 2052.35 2599.97 2053.16 2600.67 2054.13 2601.2 2055.27 2601.73 2056.4 2602 2057.75 2602 2059.31 2602 2061.17 2601.65 2062.83 2600.96 2064.29 2600.27 2065.74 2599.28 2066.97 2598 2067.97 2596.72 2068.96 2595.2 2069.72 2593.43 2070.23 2591.66 2070.74 2589.71 2071 2587.59 2071 2586.29 2071 2585.04 2070.9 2583.86 2070.7 2582.67 2070.49 2581.61 2070.24 2580.67 2069.93 2579.73 2069.62 2578.94 2069.29 2578.29 2068.96 2577.63 2068.62 2577.16 2068.32 2576.86 2068.05 2576.56 2067.78 2576.34 2067.4 2576.2 2066.92 2576.07 2066.43 2576 2065.77 2576 2064.93 2576 2064.42 2576.03 2063.99 2576.08 2063.64 2576.14 2063.29 2576.2 2063.01 2576.29 2062.79 2576.37 2062.57 2576.48 2062.42 2576.63 2062.32 2576.78 2062.23 2576.95 2062.18 2577.14 2062.18 2577.44 2062.18 2577.88 2062.36 2578.47 2062.73 2579.05 2063.09 2579.78 2063.49 2580.63 2063.92 2581.49 2064.35 2582.5 2064.75 2583.67 2065.12 2584.84 2065.48 2586.19 2065.66 2587.71 2065.66 2588.86 2065.66 2589.89 2065.54 2590.82 2065.3 2591.74 2065.05 2592.54 2064.7 2593.22 2064.23 2593.9 2063.75 2594.43 2063.15 2594.8 2062.43 2595.16 2061.7 2595.35 2060.83 2595.35 2059.84 2595.35 2058.81 2595.08 2057.95 2594.55 2057.25 2594.02 2056.55 2593.32 2055.93 2592.45 2055.39 2591.58 2054.85 2590.6 2054.37 2589.51 2053.95 2588.42 2053.53 2587.3 2053.1 2586.14 2052.64 2584.99 2052.18 2583.86 2051.66 2582.75 2051.08 2581.65 2050.5 2580.67 2049.79 2579.8 2048.96 2578.93 2048.12 2578.22 2047.12 2577.69 2045.96 2577.16 2044.81 2576.9 2043.42 2576.9 2041.8 2576.9 2040.37 2577.18 2039 2577.73 2037.69 2578.29 2036.39 2579.13 2035.24 2580.24 2034.26 2581.36 2033.27 2582.75 2032.48 2584.43 2031.89 2586.1 2031.3 2588.05 2031 2590.29 2031Z" fill-rule="evenodd"/><path d="M2666.29 2031C2667.27 2031 2668.25 2031.08 2669.22 2031.24 2670.2 2031.4 2671.09 2031.61 2671.88 2031.85 2672.67 2032.09 2673.34 2032.35 2673.9 2032.64 2674.46 2032.92 2674.88 2033.17 2675.16 2033.39 2675.45 2033.6 2675.64 2033.79 2675.73 2033.95 2675.83 2034.11 2675.9 2034.3 2675.94 2034.5 2675.98 2034.7 2676.02 2034.95 2676.06 2035.25 2676.1 2035.54 2676.12 2035.91 2676.12 2036.34 2676.12 2036.8 2676.1 2037.19 2676.06 2037.53 2676.02 2037.87 2675.95 2038.15 2675.86 2038.36 2675.76 2038.58 2675.65 2038.73 2675.51 2038.83 2675.37 2038.92 2675.22 2038.97 2675.06 2038.97 2674.82 2038.97 2674.46 2038.82 2674 2038.52 2673.54 2038.23 2672.94 2037.91 2672.2 2037.57 2671.47 2037.24 2670.61 2036.92 2669.61 2036.62 2668.62 2036.33 2667.48 2036.18 2666.2 2036.18 2665.06 2036.18 2664.05 2036.3 2663.18 2036.56 2662.31 2036.82 2661.6 2037.18 2661.04 2037.65 2660.48 2038.12 2660.06 2038.68 2659.78 2039.33 2659.49 2039.98 2659.35 2040.68 2659.35 2041.43 2659.35 2042.49 2659.62 2043.37 2660.16 2044.08 2660.71 2044.8 2661.42 2045.43 2662.29 2045.96 2663.16 2046.5 2664.15 2046.99 2665.27 2047.42 2666.38 2047.85 2667.52 2048.3 2668.67 2048.76 2669.83 2049.21 2670.97 2049.73 2672.1 2050.29 2673.23 2050.86 2674.23 2051.55 2675.1 2052.35 2675.97 2053.16 2676.67 2054.13 2677.2 2055.27 2677.74 2056.4 2678 2057.75 2678 2059.31 2678 2061.17 2677.65 2062.83 2676.96 2064.29 2676.27 2065.74 2675.28 2066.97 2674 2067.97 2672.72 2068.96 2671.2 2069.72 2669.43 2070.23 2667.66 2070.74 2665.71 2071 2663.59 2071 2662.29 2071 2661.04 2070.9 2659.86 2070.7 2658.67 2070.49 2657.61 2070.24 2656.67 2069.93 2655.73 2069.62 2654.94 2069.29 2654.29 2068.96 2653.63 2068.62 2653.16 2068.32 2652.86 2068.05 2652.56 2067.78 2652.34 2067.4 2652.2 2066.92 2652.07 2066.43 2652 2065.77 2652 2064.93 2652 2064.42 2652.03 2063.99 2652.08 2063.64 2652.14 2063.29 2652.2 2063.01 2652.29 2062.79 2652.37 2062.57 2652.48 2062.42 2652.63 2062.32 2652.78 2062.23 2652.95 2062.18 2653.14 2062.18 2653.44 2062.18 2653.88 2062.36 2654.47 2062.73 2655.05 2063.09 2655.78 2063.49 2656.63 2063.92 2657.49 2064.35 2658.5 2064.75 2659.67 2065.12 2660.84 2065.48 2662.19 2065.66 2663.71 2065.66 2664.86 2065.66 2665.89 2065.54 2666.82 2065.3 2667.74 2065.05 2668.54 2064.7 2669.22 2064.23 2669.9 2063.75 2670.43 2063.15 2670.8 2062.43 2671.16 2061.7 2671.35 2060.83 2671.35 2059.84 2671.35 2058.81 2671.08 2057.95 2670.55 2057.25 2670.02 2056.55 2669.32 2055.93 2668.45 2055.39 2667.58 2054.85 2666.6 2054.37 2665.51 2053.95 2664.42 2053.53 2663.3 2053.1 2662.14 2052.64 2660.99 2052.18 2659.86 2051.66 2658.76 2051.08 2657.65 2050.5 2656.67 2049.79 2655.8 2048.96 2654.93 2048.12 2654.22 2047.12 2653.69 2045.96 2653.16 2044.81 2652.9 2043.42 2652.9 2041.8 2652.9 2040.37 2653.18 2039 2653.73 2037.69 2654.29 2036.39 2655.13 2035.24 2656.24 2034.26 2657.36 2033.27 2658.76 2032.48 2660.43 2031.89 2662.1 2031.3 2664.05 2031 2666.29 2031Z" fill-rule="evenodd"/><path d="M2714.29 2031C2715.27 2031 2716.25 2031.08 2717.22 2031.24 2718.2 2031.4 2719.09 2031.61 2719.88 2031.85 2720.67 2032.09 2721.34 2032.35 2721.9 2032.64 2722.46 2032.92 2722.88 2033.17 2723.16 2033.39 2723.45 2033.6 2723.64 2033.79 2723.73 2033.95 2723.83 2034.11 2723.9 2034.3 2723.94 2034.5 2723.98 2034.7 2724.02 2034.95 2724.06 2035.25 2724.1 2035.54 2724.12 2035.91 2724.12 2036.34 2724.12 2036.8 2724.1 2037.19 2724.06 2037.53 2724.02 2037.87 2723.95 2038.15 2723.86 2038.36 2723.76 2038.58 2723.65 2038.73 2723.51 2038.83 2723.37 2038.92 2723.22 2038.97 2723.06 2038.97 2722.82 2038.97 2722.46 2038.82 2722 2038.52 2721.54 2038.23 2720.94 2037.91 2720.2 2037.57 2719.47 2037.24 2718.61 2036.92 2717.61 2036.62 2716.62 2036.33 2715.48 2036.18 2714.2 2036.18 2713.06 2036.18 2712.05 2036.3 2711.18 2036.56 2710.31 2036.82 2709.6 2037.18 2709.04 2037.65 2708.48 2038.12 2708.06 2038.68 2707.78 2039.33 2707.49 2039.98 2707.35 2040.68 2707.35 2041.43 2707.35 2042.49 2707.62 2043.37 2708.16 2044.08 2708.71 2044.8 2709.42 2045.43 2710.29 2045.96 2711.16 2046.5 2712.15 2046.99 2713.27 2047.42 2714.38 2047.85 2715.52 2048.3 2716.67 2048.76 2717.83 2049.21 2718.97 2049.73 2720.1 2050.29 2721.23 2050.86 2722.23 2051.55 2723.1 2052.35 2723.97 2053.16 2724.67 2054.13 2725.2 2055.27 2725.73 2056.4 2726 2057.75 2726 2059.31 2726 2061.17 2725.65 2062.83 2724.96 2064.29 2724.27 2065.74 2723.28 2066.97 2722 2067.97 2720.72 2068.96 2719.2 2069.72 2717.43 2070.23 2715.66 2070.74 2713.71 2071 2711.59 2071 2710.29 2071 2709.04 2070.9 2707.86 2070.7 2706.67 2070.49 2705.61 2070.24 2704.67 2069.93 2703.74 2069.62 2702.94 2069.29 2702.29 2068.96 2701.63 2068.62 2701.16 2068.32 2700.86 2068.05 2700.56 2067.78 2700.34 2067.4 2700.2 2066.92 2700.07 2066.43 2700 2065.77 2700 2064.93 2700 2064.42 2700.03 2063.99 2700.08 2063.64 2700.14 2063.29 2700.2 2063.01 2700.29 2062.79 2700.37 2062.57 2700.48 2062.42 2700.63 2062.32 2700.78 2062.23 2700.95 2062.18 2701.14 2062.18 2701.44 2062.18 2701.88 2062.36 2702.47 2062.73 2703.05 2063.09 2703.78 2063.49 2704.63 2063.92 2705.49 2064.35 2706.5 2064.75 2707.67 2065.12 2708.84 2065.48 2710.19 2065.66 2711.71 2065.66 2712.86 2065.66 2713.89 2065.54 2714.82 2065.3 2715.74 2065.05 2716.54 2064.7 2717.22 2064.23 2717.91 2063.75 2718.43 2063.15 2718.8 2062.43 2719.16 2061.7 2719.35 2060.83 2719.35 2059.84 2719.35 2058.81 2719.08 2057.95 2718.55 2057.25 2718.02 2056.55 2717.32 2055.93 2716.45 2055.39 2715.58 2054.85 2714.6 2054.37 2713.51 2053.95 2712.42 2053.53 2711.3 2053.1 2710.14 2052.64 2708.99 2052.18 2707.86 2051.66 2706.76 2051.08 2705.65 2050.5 2704.67 2049.79 2703.8 2048.96 2702.93 2048.12 2702.22 2047.12 2701.69 2045.96 2701.16 2044.81 2700.9 2043.42 2700.9 2041.8 2700.9 2040.37 2701.18 2039 2701.73 2037.69 2702.29 2036.39 2703.13 2035.24 2704.25 2034.26 2705.36 2033.27 2706.76 2032.48 2708.43 2031.89 2710.1 2031.3 2712.05 2031 2714.29 2031Z" fill-rule="evenodd"/><path d="M2748.74 2031C2751.64 2031 2754.11 2031.46 2756.15 2032.38 2758.19 2033.29 2759.87 2034.53 2761.18 2036.08 2762.5 2037.63 2763.46 2039.45 2764.08 2041.54 2764.69 2043.63 2765 2045.86 2765 2048.23L2765 2049.44C2765 2050.49 2764.73 2051.24 2764.2 2051.69 2763.66 2052.13 2763.05 2052.35 2762.36 2052.35L2738.02 2052.35C2738.02 2054.38 2738.23 2056.2 2738.64 2057.82 2739.05 2059.43 2739.74 2060.82 2740.7 2061.98 2741.67 2063.14 2742.92 2064.03 2744.46 2064.65 2746 2065.27 2747.88 2065.58 2750.11 2065.58 2751.87 2065.58 2753.44 2065.44 2754.82 2065.16 2756.19 2064.87 2757.38 2064.56 2758.38 2064.21 2759.39 2063.85 2760.21 2063.54 2760.86 2063.26 2761.51 2062.97 2762 2062.83 2762.33 2062.83 2762.52 2062.83 2762.69 2062.88 2762.84 2062.97 2762.99 2063.07 2763.11 2063.21 2763.19 2063.4 2763.27 2063.59 2763.34 2063.85 2763.38 2064.19 2763.42 2064.52 2763.44 2064.93 2763.44 2065.42 2763.44 2065.77 2763.43 2066.07 2763.4 2066.33 2763.37 2066.58 2763.34 2066.81 2763.3 2067.02 2763.25 2067.22 2763.19 2067.4 2763.09 2067.56 2762.99 2067.72 2762.87 2067.88 2762.72 2068.03 2762.57 2068.18 2762.13 2068.42 2761.39 2068.76 2760.65 2069.09 2759.69 2069.42 2758.51 2069.75 2757.33 2070.07 2755.97 2070.36 2754.43 2070.62 2752.88 2070.87 2751.23 2071 2749.48 2071 2746.44 2071 2743.78 2070.58 2741.49 2069.75 2739.21 2068.91 2737.28 2067.67 2735.72 2066.03 2734.16 2064.38 2732.98 2062.32 2732.19 2059.84 2731.4 2057.36 2731 2054.47 2731 2051.18 2731 2048.05 2731.41 2045.24 2732.23 2042.75 2733.05 2040.25 2734.24 2038.14 2735.78 2036.4 2737.33 2034.66 2739.2 2033.33 2741.39 2032.4 2743.58 2031.46 2746.03 2031 2748.74 2031ZM2748.39 2036.22C2746.71 2036.22 2745.24 2036.53 2743.97 2037.15 2742.7 2037.77 2741.64 2038.59 2740.79 2039.61 2739.94 2040.64 2739.28 2041.83 2738.81 2043.19 2738.34 2044.56 2738.08 2045.98 2738.02 2047.46L2758.18 2047.46C2758.27 2043.96 2757.47 2041.21 2755.81 2039.21 2754.14 2037.21 2751.67 2036.22 2748.39 2036.22Z" fill-rule="evenodd"/><path d="M2788.5 2031C2789.57 2031 2790.56 2031.11 2791.49 2031.34 2792.42 2031.57 2793.35 2031.94 2794.26 2032.44 2795.18 2032.94 2796.11 2033.58 2797.05 2034.38 2798 2035.18 2799.03 2036.13 2800.14 2037.23L2800.14 2032.82C2800.14 2032.58 2800.19 2032.38 2800.3 2032.23 2800.41 2032.09 2800.58 2031.96 2800.82 2031.85 2801.06 2031.74 2801.36 2031.67 2801.74 2031.63 2802.11 2031.59 2802.57 2031.57 2803.13 2031.57 2803.66 2031.57 2804.11 2031.59 2804.49 2031.63 2804.86 2031.67 2805.16 2031.74 2805.38 2031.85 2805.61 2031.96 2805.77 2032.09 2805.86 2032.23 2805.95 2032.38 2806 2032.58 2806 2032.82L2806 2083.7C2806 2083.92 2805.94 2084.11 2805.82 2084.27 2805.7 2084.43 2805.52 2084.57 2805.28 2084.68 2805.04 2084.78 2804.71 2084.86 2804.29 2084.92 2803.86 2084.97 2803.33 2085 2802.69 2085 2802.03 2085 2801.49 2084.97 2801.08 2084.92 2800.67 2084.86 2800.33 2084.78 2800.06 2084.68 2799.8 2084.57 2799.62 2084.43 2799.52 2084.27 2799.43 2084.11 2799.38 2083.92 2799.38 2083.7L2799.38 2065.04C2798.29 2066.15 2797.26 2067.09 2796.28 2067.86 2795.29 2068.63 2794.32 2069.25 2793.37 2069.72 2792.41 2070.19 2791.45 2070.53 2790.48 2070.73 2789.51 2070.93 2788.5 2071.03 2787.47 2071.03 2784.86 2071.03 2782.64 2070.52 2780.81 2069.48 2778.98 2068.44 2777.48 2067.03 2776.33 2065.27 2775.17 2063.5 2774.33 2061.42 2773.8 2059.03 2773.27 2056.64 2773 2054.13 2773 2051.48 2773 2048.35 2773.33 2045.53 2774 2043 2774.66 2040.48 2775.65 2038.33 2776.97 2036.55 2778.28 2034.76 2779.9 2033.39 2781.83 2032.44 2783.75 2031.48 2785.98 2031 2788.5 2031ZM2789.02 2036.75C2787.35 2036.75 2785.93 2037.15 2784.76 2037.96 2783.59 2038.77 2782.64 2039.84 2781.91 2041.16 2781.18 2042.48 2780.65 2043.98 2780.31 2045.65 2779.98 2047.33 2779.82 2049.03 2779.82 2050.75 2779.82 2052.62 2779.95 2054.42 2780.23 2056.18 2780.51 2057.93 2781 2059.48 2781.69 2060.83 2782.38 2062.18 2783.3 2063.27 2784.44 2064.09 2785.58 2064.92 2787.02 2065.33 2788.74 2065.33 2789.62 2065.33 2790.46 2065.21 2791.27 2064.96 2792.08 2064.72 2792.91 2064.31 2793.76 2063.75 2794.61 2063.18 2795.5 2062.45 2796.43 2061.54 2797.36 2060.64 2798.35 2059.52 2799.38 2058.2L2799.38 2043.63C2797.6 2041.39 2795.88 2039.68 2794.22 2038.51 2792.56 2037.33 2790.83 2036.75 2789.02 2036.75Z" fill-rule="evenodd"/><path d="M2879.22 2031C2882.03 2031 2884.43 2031.46 2886.41 2032.38 2888.39 2033.29 2890.02 2034.53 2891.29 2036.08 2892.57 2037.63 2893.51 2039.45 2894.1 2041.54 2894.7 2043.63 2895 2045.86 2895 2048.23L2895 2049.44C2895 2050.49 2894.74 2051.24 2894.22 2051.69 2893.7 2052.13 2893.1 2052.35 2892.44 2052.35L2868.82 2052.35C2868.82 2054.38 2869.02 2056.2 2869.42 2057.82 2869.82 2059.43 2870.48 2060.82 2871.42 2061.98 2872.35 2063.14 2873.57 2064.03 2875.06 2064.65 2876.56 2065.27 2878.39 2065.58 2880.55 2065.58 2882.26 2065.58 2883.78 2065.44 2885.11 2065.16 2886.45 2064.87 2887.6 2064.56 2888.58 2064.21 2889.55 2063.85 2890.35 2063.54 2890.98 2063.26 2891.61 2062.97 2892.08 2062.83 2892.4 2062.83 2892.59 2062.83 2892.76 2062.88 2892.9 2062.97 2893.05 2063.07 2893.17 2063.21 2893.25 2063.4 2893.33 2063.59 2893.39 2063.85 2893.43 2064.19 2893.47 2064.52 2893.49 2064.93 2893.49 2065.42 2893.49 2065.77 2893.47 2066.07 2893.45 2066.33 2893.42 2066.58 2893.39 2066.81 2893.35 2067.02 2893.31 2067.22 2893.24 2067.4 2893.15 2067.56 2893.05 2067.72 2892.93 2067.88 2892.79 2068.03 2892.64 2068.18 2892.21 2068.42 2891.49 2068.76 2890.78 2069.09 2889.85 2069.42 2888.7 2069.75 2887.56 2070.07 2886.24 2070.36 2884.74 2070.62 2883.24 2070.87 2881.64 2071 2879.93 2071 2876.99 2071 2874.4 2070.58 2872.18 2069.75 2869.96 2068.91 2868.1 2067.67 2866.58 2066.03 2865.07 2064.38 2863.93 2062.32 2863.16 2059.84 2862.39 2057.36 2862 2054.47 2862 2051.18 2862 2048.05 2862.4 2045.24 2863.2 2042.75 2863.99 2040.25 2865.14 2038.14 2866.64 2036.4 2868.14 2034.66 2869.96 2033.33 2872.08 2032.4 2874.21 2031.46 2876.59 2031 2879.22 2031ZM2878.88 2036.22C2877.25 2036.22 2875.82 2036.53 2874.59 2037.15 2873.36 2037.77 2872.33 2038.59 2871.5 2039.61 2870.67 2040.64 2870.03 2041.83 2869.58 2043.19 2869.12 2044.56 2868.87 2045.98 2868.82 2047.46L2888.38 2047.46C2888.46 2043.96 2887.7 2041.21 2886.08 2039.21 2884.46 2037.21 2882.06 2036.22 2878.88 2036.22Z" fill-rule="evenodd"/><path d="M2924.12 2031C2926.52 2031 2928.54 2031.41 2930.18 2032.22 2931.82 2033.03 2933.15 2034.12 2934.16 2035.48 2935.17 2036.83 2935.9 2038.43 2936.34 2040.25 2936.78 2042.08 2937 2044.27 2937 2046.82L2937 2068.76C2937 2068.97 2936.95 2069.15 2936.84 2069.3 2936.73 2069.45 2936.56 2069.57 2936.32 2069.68 2936.08 2069.79 2935.75 2069.87 2935.32 2069.92 2934.89 2069.97 2934.36 2070 2933.72 2070 2933.05 2070 2932.51 2069.97 2932.08 2069.92 2931.65 2069.87 2931.32 2069.79 2931.08 2069.68 2930.84 2069.57 2930.67 2069.45 2930.56 2069.3 2930.45 2069.15 2930.4 2068.97 2930.4 2068.76L2930.4 2047.7C2930.4 2045.65 2930.24 2044 2929.92 2042.75 2929.6 2041.5 2929.13 2040.42 2928.52 2039.51 2927.91 2038.61 2927.11 2037.91 2926.14 2037.43 2925.17 2036.95 2924.04 2036.71 2922.76 2036.71 2921.11 2036.71 2919.45 2037.3 2917.8 2038.47 2916.15 2039.64 2914.41 2041.36 2912.6 2043.63L2912.6 2068.76C2912.6 2068.97 2912.55 2069.15 2912.44 2069.3 2912.33 2069.45 2912.16 2069.57 2911.92 2069.68 2911.68 2069.79 2911.35 2069.87 2910.92 2069.92 2910.49 2069.97 2909.95 2070 2909.28 2070 2908.64 2070 2908.11 2069.97 2907.68 2069.92 2907.25 2069.87 2906.91 2069.79 2906.66 2069.68 2906.41 2069.57 2906.23 2069.45 2906.14 2069.3 2906.05 2069.15 2906 2068.97 2906 2068.76L2906 2032.8C2906 2032.58 2906.04 2032.41 2906.12 2032.26 2906.2 2032.11 2906.36 2031.98 2906.6 2031.86 2906.84 2031.74 2907.15 2031.66 2907.52 2031.62 2907.89 2031.58 2908.39 2031.56 2909 2031.56 2909.59 2031.56 2910.07 2031.58 2910.46 2031.62 2910.85 2031.66 2911.15 2031.74 2911.36 2031.86 2911.57 2031.98 2911.73 2032.11 2911.82 2032.26 2911.91 2032.41 2911.96 2032.58 2911.96 2032.8L2911.96 2037.55C2913.99 2035.29 2916.01 2033.63 2918.02 2032.58 2920.03 2031.53 2922.07 2031 2924.12 2031Z" fill-rule="evenodd"/><path d="M2999.74 2031C3002.64 2031 3005.11 2031.46 3007.15 2032.38 3009.19 2033.29 3010.87 2034.53 3012.18 2036.08 3013.5 2037.63 3014.46 2039.45 3015.08 2041.54 3015.69 2043.63 3016 2045.86 3016 2048.23L3016 2049.44C3016 2050.49 3015.73 2051.24 3015.2 2051.69 3014.66 2052.13 3014.05 2052.35 3013.36 2052.35L2989.02 2052.35C2989.02 2054.38 2989.23 2056.2 2989.64 2057.82 2990.05 2059.43 2990.74 2060.82 2991.7 2061.98 2992.67 2063.14 2993.92 2064.03 2995.46 2064.65 2997 2065.27 2998.88 2065.58 3001.11 2065.58 3002.87 2065.58 3004.44 2065.44 3005.82 2065.16 3007.19 2064.87 3008.38 2064.56 3009.38 2064.21 3010.39 2063.85 3011.21 2063.54 3011.86 2063.26 3012.51 2062.97 3013 2062.83 3013.33 2062.83 3013.52 2062.83 3013.69 2062.88 3013.84 2062.97 3013.99 2063.07 3014.11 2063.21 3014.19 2063.4 3014.27 2063.59 3014.34 2063.85 3014.38 2064.19 3014.42 2064.52 3014.44 2064.93 3014.44 2065.42 3014.44 2065.77 3014.43 2066.07 3014.4 2066.33 3014.37 2066.58 3014.34 2066.81 3014.3 2067.02 3014.25 2067.22 3014.19 2067.4 3014.09 2067.56 3013.99 2067.72 3013.87 2067.88 3013.72 2068.03 3013.57 2068.18 3013.13 2068.42 3012.39 2068.76 3011.65 2069.09 3010.69 2069.42 3009.51 2069.75 3008.33 2070.07 3006.97 2070.36 3005.43 2070.62 3003.88 2070.87 3002.23 2071 3000.48 2071 2997.44 2071 2994.78 2070.58 2992.49 2069.75 2990.21 2068.91 2988.28 2067.67 2986.72 2066.03 2985.16 2064.38 2983.98 2062.32 2983.19 2059.84 2982.4 2057.36 2982 2054.47 2982 2051.18 2982 2048.05 2982.41 2045.24 2983.23 2042.75 2984.05 2040.25 2985.24 2038.14 2986.78 2036.4 2988.33 2034.66 2990.2 2033.33 2992.39 2032.4 2994.58 2031.46 2997.03 2031 2999.74 2031ZM2999.39 2036.22C2997.71 2036.22 2996.24 2036.53 2994.97 2037.15 2993.7 2037.77 2992.64 2038.59 2991.79 2039.61 2990.94 2040.64 2990.28 2041.83 2989.81 2043.19 2989.34 2044.56 2989.08 2045.98 2989.02 2047.46L3009.18 2047.46C3009.27 2043.96 3008.47 2041.21 3006.81 2039.21 3005.14 2037.21 3002.67 2036.22 2999.39 2036.22Z" fill-rule="evenodd"/><path d="M2964.56 2031C2965.69 2031 2966.79 2031.11 2967.86 2031.32 2968.92 2031.54 2969.9 2031.82 2970.79 2032.17 2971.69 2032.53 2972.48 2032.93 2973.18 2033.39 2973.88 2033.85 2974.38 2034.24 2974.7 2034.56 2975.01 2034.89 2975.23 2035.14 2975.35 2035.33 2975.47 2035.52 2975.57 2035.74 2975.64 2036 2975.72 2036.26 2975.78 2036.55 2975.8 2036.87 2975.83 2037.19 2975.84 2037.6 2975.84 2038.09 2975.84 2039.14 2975.72 2039.87 2975.49 2040.29 2975.25 2040.71 2974.96 2040.92 2974.62 2040.92 2974.23 2040.92 2973.77 2040.7 2973.26 2040.25 2972.75 2039.81 2972.1 2039.31 2971.31 2038.77 2970.52 2038.23 2969.57 2037.74 2968.45 2037.3 2967.33 2036.85 2966.01 2036.63 2964.48 2036.63 2961.36 2036.63 2958.96 2037.86 2957.29 2040.33 2955.62 2042.8 2954.78 2046.38 2954.78 2051.08 2954.78 2053.43 2955 2055.49 2955.43 2057.26 2955.87 2059.02 2956.51 2060.5 2957.35 2061.69 2958.19 2062.88 2959.22 2063.76 2960.44 2064.34 2961.66 2064.92 2963.06 2065.21 2964.64 2065.21 2966.14 2065.21 2967.46 2064.97 2968.59 2064.48 2969.72 2064 2970.7 2063.46 2971.52 2062.88 2972.35 2062.3 2973.05 2061.78 2973.61 2061.3 2974.18 2060.83 2974.62 2060.59 2974.94 2060.59 2975.12 2060.59 2975.28 2060.65 2975.41 2060.76 2975.54 2060.87 2975.65 2061.05 2975.74 2061.3 2975.84 2061.56 2975.9 2061.88 2975.94 2062.28 2975.98 2062.67 2976 2063.13 2976 2063.67 2976 2064.13 2975.99 2064.53 2975.96 2064.87 2975.93 2065.2 2975.89 2065.49 2975.82 2065.72 2975.76 2065.95 2975.68 2066.15 2975.59 2066.32 2975.49 2066.5 2975.28 2066.76 2974.95 2067.09 2974.63 2067.43 2974.07 2067.85 2973.28 2068.35 2972.49 2068.85 2971.6 2069.29 2970.62 2069.68 2969.63 2070.08 2968.56 2070.39 2967.4 2070.64 2966.25 2070.88 2965.05 2071 2963.81 2071 2961.26 2071 2959 2070.57 2957.03 2069.7 2955.06 2068.84 2953.41 2067.58 2952.08 2065.92 2950.75 2064.26 2949.74 2062.22 2949.05 2059.81 2948.35 2057.39 2948 2054.6 2948 2051.45 2948 2047.86 2948.43 2044.77 2949.28 2042.19 2950.14 2039.62 2951.31 2037.5 2952.79 2035.86 2954.28 2034.21 2956.03 2032.99 2958.04 2032.19 2960.05 2031.4 2962.22 2031 2964.56 2031Z" fill-rule="evenodd"/><path d="M2613.32 2032C2613.96 2032 2614.49 2032.02 2614.91 2032.06 2615.34 2032.1 2615.68 2032.18 2615.93 2032.3 2616.19 2032.42 2616.37 2032.55 2616.47 2032.7 2616.58 2032.85 2616.63 2033.03 2616.63 2033.24L2616.63 2054.2C2616.63 2056.31 2616.78 2057.99 2617.09 2059.26 2617.4 2060.53 2617.86 2061.61 2618.49 2062.5 2619.11 2063.39 2619.91 2064.09 2620.87 2064.58 2621.82 2065.07 2622.94 2065.32 2624.22 2065.32 2625.87 2065.32 2627.52 2064.73 2629.16 2063.56 2630.79 2062.39 2632.53 2060.67 2634.37 2058.4L2634.37 2033.24C2634.37 2033.03 2634.42 2032.85 2634.51 2032.7 2634.6 2032.55 2634.78 2032.42 2635.05 2032.3 2635.31 2032.18 2635.65 2032.1 2636.07 2032.06 2636.48 2032.02 2637.02 2032 2637.68 2032 2638.32 2032 2638.86 2032.02 2639.28 2032.06 2639.71 2032.1 2640.04 2032.18 2640.28 2032.3 2640.52 2032.42 2640.7 2032.55 2640.82 2032.7 2640.94 2032.85 2641 2033.03 2641 2033.24L2641 2069.24C2641 2069.45 2640.95 2069.63 2640.86 2069.78 2640.77 2069.93 2640.6 2070.05 2640.36 2070.16 2640.12 2070.27 2639.81 2070.35 2639.42 2070.4 2639.04 2070.45 2638.56 2070.48 2638 2070.48 2637.39 2070.48 2636.89 2070.45 2636.51 2070.4 2636.12 2070.35 2635.81 2070.27 2635.59 2070.16 2635.36 2070.05 2635.21 2069.93 2635.13 2069.78 2635.05 2069.63 2635.01 2069.45 2635.01 2069.24L2635.01 2064.48C2632.96 2066.75 2630.93 2068.4 2628.94 2069.44 2626.94 2070.48 2624.91 2071 2622.86 2071 2620.47 2071 2618.45 2070.6 2616.81 2069.8 2615.17 2069 2613.85 2067.91 2612.84 2066.54 2611.82 2065.17 2611.1 2063.57 2610.66 2061.74 2610.22 2059.91 2610 2057.69 2610 2055.08L2610 2033.24C2610 2033.03 2610.05 2032.85 2610.14 2032.7 2610.23 2032.55 2610.41 2032.42 2610.68 2032.3 2610.95 2032.18 2611.29 2032.1 2611.72 2032.06 2612.14 2032.02 2612.68 2032 2613.32 2032Z" fill-rule="evenodd"/><path d="M2823.32 2032C2823.96 2032 2824.49 2032.02 2824.91 2032.06 2825.34 2032.1 2825.68 2032.18 2825.93 2032.3 2826.19 2032.42 2826.37 2032.55 2826.47 2032.7 2826.58 2032.85 2826.63 2033.03 2826.63 2033.24L2826.63 2054.2C2826.63 2056.31 2826.78 2057.99 2827.09 2059.26 2827.4 2060.53 2827.86 2061.61 2828.49 2062.5 2829.11 2063.39 2829.91 2064.09 2830.87 2064.58 2831.82 2065.07 2832.94 2065.32 2834.22 2065.32 2835.87 2065.32 2837.52 2064.73 2839.16 2063.56 2840.79 2062.39 2842.53 2060.67 2844.37 2058.4L2844.37 2033.24C2844.37 2033.03 2844.42 2032.85 2844.51 2032.7 2844.6 2032.55 2844.78 2032.42 2845.05 2032.3 2845.31 2032.18 2845.65 2032.1 2846.07 2032.06 2846.48 2032.02 2847.02 2032 2847.68 2032 2848.32 2032 2848.86 2032.02 2849.28 2032.06 2849.71 2032.1 2850.04 2032.18 2850.28 2032.3 2850.52 2032.42 2850.7 2032.55 2850.82 2032.7 2850.94 2032.85 2851 2033.03 2851 2033.24L2851 2069.24C2851 2069.45 2850.95 2069.63 2850.86 2069.78 2850.77 2069.93 2850.6 2070.05 2850.36 2070.16 2850.12 2070.27 2849.81 2070.35 2849.42 2070.4 2849.04 2070.45 2848.56 2070.48 2848 2070.48 2847.39 2070.48 2846.89 2070.45 2846.51 2070.4 2846.12 2070.35 2845.81 2070.27 2845.59 2070.16 2845.36 2070.05 2845.21 2069.93 2845.13 2069.78 2845.05 2069.63 2845.01 2069.45 2845.01 2069.24L2845.01 2064.48C2842.96 2066.75 2840.93 2068.4 2838.94 2069.44 2836.94 2070.48 2834.91 2071 2832.86 2071 2830.47 2071 2828.45 2070.6 2826.81 2069.8 2825.17 2069 2823.85 2067.91 2822.84 2066.54 2821.82 2065.17 2821.1 2063.57 2820.66 2061.74 2820.22 2059.91 2820 2057.69 2820 2055.08L2820 2033.24C2820 2033.03 2820.05 2032.85 2820.14 2032.7 2820.23 2032.55 2820.41 2032.42 2820.68 2032.3 2820.95 2032.18 2821.29 2032.1 2821.72 2032.06 2822.14 2032.02 2822.68 2032 2823.32 2032Z" fill-rule="evenodd"/><path d="M1151.16 1359 1151.16 1624.72 1140.84 1624.72 1140.84 1359ZM1161.47 1619.56 1146 1650.5 1130.53 1619.56Z"/><path d="M1151.16 785 1151.16 1050.72 1140.84 1050.72 1140.84 785ZM1161.47 1045.56 1146 1076.5 1130.53 1045.56Z"/><path d="M1193.98 593C1194.78 593 1195.45 593.036 1195.96 593.107 1196.48 593.179 1196.88 593.286 1197.18 593.429 1197.47 593.572 1197.68 593.751 1197.81 593.965 1197.94 594.18 1198 594.43 1198 594.716L1198 666.338C1198 666.624 1197.94 666.865 1197.81 667.062 1197.68 667.258 1197.47 667.428 1197.18 667.571 1196.88 667.714 1196.48 667.821 1195.96 667.893 1195.45 667.964 1194.78 668 1193.98 668 1193.2 668 1192.55 667.964 1192.04 667.893 1191.52 667.821 1191.11 667.714 1190.8 667.571 1190.49 667.428 1190.28 667.258 1190.17 667.062 1190.06 666.865 1190 666.624 1190 666.338L1190 594.716C1190 594.43 1190.06 594.18 1190.17 593.965 1190.28 593.751 1190.49 593.572 1190.8 593.429 1191.11 593.286 1191.52 593.179 1192.04 593.107 1192.55 593.036 1193.2 593 1193.98 593Z" fill-rule="evenodd"/><path d="M1005.72 597C1010.83 597 1015.28 597.775 1019.07 599.324 1022.85 600.874 1026.01 603.135 1028.52 606.108 1031.04 609.081 1032.92 612.757 1034.15 617.135 1035.38 621.513 1036 626.532 1036 632.189 1036 637.847 1035.34 642.946 1034.02 647.486 1032.7 652.027 1030.72 655.892 1028.1 659.081 1025.47 662.27 1022.17 664.721 1018.21 666.432 1014.24 668.144 1009.62 669 1004.33 669 999.114 669 994.604 668.216 990.799 666.649 986.995 665.081 983.851 662.802 981.368 659.811 978.885 656.82 977.037 653.108 975.822 648.675 974.607 644.243 974 639.144 974 633.378 974 627.865 974.661 622.856 975.983 618.351 977.304 613.847 979.287 610.018 981.931 606.865 984.574 603.712 987.879 601.279 991.844 599.568 995.81 597.856 1000.44 597 1005.72 597ZM1005.16 604.946C1001.16 604.946 997.811 605.703 995.099 607.216 992.387 608.73 990.184 610.748 988.489 613.27 986.795 615.793 985.582 618.739 984.85 622.108 984.119 625.477 983.753 629.018 983.753 632.73 983.753 636.838 984.092 640.622 984.77 644.081 985.448 647.54 986.589 650.522 988.195 653.027 989.801 655.531 991.95 657.478 994.644 658.865 997.338 660.252 1000.72 660.946 1004.79 660.946 1008.82 660.946 1012.21 660.189 1014.95 658.676 1017.7 657.162 1019.91 655.117 1021.59 652.541 1023.27 649.964 1024.46 646.982 1025.18 643.595 1025.89 640.207 1026.25 636.622 1026.25 632.838 1026.25 628.874 1025.9 625.189 1025.2 621.784 1024.51 618.378 1023.35 615.423 1021.72 612.919 1020.1 610.414 1017.93 608.459 1015.22 607.054 1012.51 605.649 1009.16 604.946 1005.16 604.946Z" fill-rule="evenodd"/><path d="M1116.96 615C1120.71 615 1123.91 615.619 1126.55 616.856 1129.19 618.094 1131.36 619.759 1133.06 621.852 1134.76 623.945 1136.01 626.402 1136.8 629.224 1137.6 632.044 1138 635.056 1138 638.26L1138 639.898C1138 641.317 1137.65 642.327 1136.96 642.928 1136.27 643.529 1135.47 643.829 1134.58 643.829L1103.09 643.829C1103.09 646.559 1103.35 649.016 1103.89 651.2 1104.42 653.384 1105.31 655.259 1106.56 656.824 1107.8 658.389 1109.42 659.59 1111.42 660.428 1113.41 661.265 1115.85 661.683 1118.73 661.683 1121.01 661.683 1123.04 661.492 1124.82 661.11 1126.6 660.728 1128.14 660.3 1129.44 659.827 1130.74 659.354 1131.81 658.926 1132.64 658.544 1133.48 658.161 1134.11 657.971 1134.54 657.971 1134.79 657.971 1135.01 658.034 1135.21 658.161 1135.4 658.289 1135.55 658.48 1135.66 658.735 1135.77 658.99 1135.85 659.345 1135.9 659.8 1135.95 660.255 1135.98 660.81 1135.98 661.465 1135.98 661.938 1135.96 662.348 1135.93 662.693 1135.89 663.039 1135.85 663.349 1135.79 663.622 1135.74 663.895 1135.65 664.14 1135.53 664.359 1135.41 664.577 1135.25 664.786 1135.05 664.987 1134.86 665.187 1134.28 665.515 1133.32 665.97 1132.37 666.424 1131.13 666.871 1129.6 667.307 1128.08 667.744 1126.32 668.135 1124.32 668.481 1122.32 668.827 1120.18 669 1117.91 669 1113.98 669 1110.54 668.436 1107.58 667.307 1104.62 666.179 1102.13 664.504 1100.11 662.284 1098.09 660.064 1096.57 657.279 1095.54 653.93 1094.51 650.581 1094 646.687 1094 642.246 1094 638.023 1094.53 634.228 1095.59 630.861 1096.66 627.494 1098.19 624.637 1100.19 622.289 1102.19 619.941 1104.61 618.139 1107.44 616.883 1110.28 615.628 1113.45 615 1116.96 615ZM1116.51 622.043C1114.33 622.043 1112.43 622.462 1110.79 623.299 1109.15 624.136 1107.77 625.247 1106.67 626.63 1105.56 628.013 1104.71 629.624 1104.1 631.462 1103.5 633.3 1103.16 635.22 1103.09 637.222L1129.18 637.222C1129.29 632.49 1128.26 628.777 1126.1 626.084 1123.95 623.39 1120.75 622.043 1116.51 622.043Z" fill-rule="evenodd"/><path d="M1173.03 615C1173.49 615 1174.01 615.027 1174.6 615.081 1175.18 615.136 1175.79 615.235 1176.43 615.38 1177.07 615.525 1177.65 615.688 1178.16 615.869 1178.68 616.05 1179.04 616.231 1179.26 616.412 1179.47 616.593 1179.61 616.765 1179.68 616.928 1179.75 617.091 1179.81 617.299 1179.87 617.552 1179.92 617.805 1179.96 618.177 1179.97 618.665 1179.99 619.154 1180 619.815 1180 620.647 1180 621.444 1179.98 622.114 1179.95 622.657 1179.91 623.2 1179.84 623.625 1179.73 623.933 1179.63 624.24 1179.49 624.476 1179.33 624.639 1179.18 624.802 1178.95 624.883 1178.67 624.883 1178.39 624.883 1178.04 624.802 1177.63 624.639 1177.22 624.476 1176.76 624.313 1176.25 624.15 1175.73 623.987 1175.16 623.833 1174.52 623.688 1173.88 623.543 1173.19 623.471 1172.44 623.471 1171.55 623.471 1170.68 623.652 1169.83 624.014 1168.98 624.376 1168.09 624.974 1167.14 625.806 1166.2 626.639 1165.22 627.743 1164.19 629.119 1163.16 630.494 1162.03 632.178 1160.78 634.169L1160.78 666.316C1160.78 666.606 1160.71 666.851 1160.57 667.05 1160.43 667.249 1160.2 667.421 1159.88 667.565 1159.56 667.71 1159.12 667.819 1158.55 667.891 1157.98 667.964 1157.25 668 1156.36 668 1155.51 668 1154.8 667.964 1154.24 667.891 1153.67 667.819 1153.22 667.71 1152.88 667.565 1152.54 667.421 1152.31 667.249 1152.19 667.05 1152.06 666.851 1152 666.606 1152 666.316L1152 617.443C1152 617.154 1152.05 616.91 1152.16 616.71 1152.27 616.511 1152.48 616.33 1152.8 616.168 1153.12 616.004 1153.53 615.896 1154.02 615.842 1154.52 615.787 1155.18 615.76 1155.99 615.76 1156.77 615.76 1157.42 615.787 1157.94 615.842 1158.45 615.896 1158.85 616.004 1159.13 616.168 1159.42 616.33 1159.62 616.511 1159.75 616.71 1159.87 616.91 1159.93 617.154 1159.93 617.443L1159.93 624.557C1161.24 622.602 1162.48 621.009 1163.63 619.779 1164.78 618.548 1165.88 617.579 1166.91 616.873 1167.93 616.168 1168.95 615.679 1169.97 615.407 1170.98 615.136 1172 615 1173.03 615Z" fill-rule="evenodd"/><path d="M1230.78 615C1234.29 615 1237.26 615.4 1239.72 616.201 1242.17 617.002 1244.15 618.176 1245.67 619.723 1247.19 621.27 1248.29 623.19 1248.97 625.483 1249.66 627.777 1250 630.452 1250 633.51L1250 666.652C1250 667.089 1249.86 667.417 1249.57 667.635 1249.28 667.853 1248.88 668.017 1248.38 668.126 1247.87 668.235 1247.13 668.29 1246.16 668.29 1245.22 668.29 1244.47 668.235 1243.91 668.126 1243.35 668.017 1242.95 667.853 1242.69 667.635 1242.44 667.417 1242.31 667.089 1242.31 666.652L1242.31 661.738C1240.19 664.031 1237.81 665.815 1235.2 667.089 1232.58 668.363 1229.81 669 1226.89 669 1224.33 669 1222.01 668.663 1219.93 667.99 1217.86 667.316 1216.09 666.343 1214.63 665.069 1213.17 663.795 1212.03 662.229 1211.22 660.373 1210.41 658.517 1210 656.405 1210 654.039 1210 651.273 1210.56 648.87 1211.68 646.832 1212.8 644.793 1214.4 643.101 1216.5 641.754 1218.59 640.407 1221.15 639.397 1224.18 638.724 1227.21 638.05 1230.62 637.714 1234.41 637.714L1241.12 637.714 1241.12 633.892C1241.12 631.999 1240.92 630.324 1240.53 628.868 1240.13 627.412 1239.49 626.202 1238.61 625.237 1237.72 624.273 1236.58 623.545 1235.17 623.053 1233.76 622.562 1232.03 622.316 1229.97 622.316 1227.77 622.316 1225.8 622.58 1224.05 623.108 1222.3 623.636 1220.76 624.218 1219.45 624.855 1218.13 625.492 1217.03 626.075 1216.14 626.603 1215.26 627.13 1214.6 627.394 1214.17 627.394 1213.88 627.394 1213.63 627.321 1213.41 627.176 1213.19 627.03 1213 626.812 1212.84 626.521 1212.68 626.229 1212.56 625.856 1212.49 625.401 1212.42 624.946 1212.38 624.446 1212.38 623.9 1212.38 622.99 1212.44 622.271 1212.57 621.743 1212.7 621.215 1213 620.715 1213.49 620.241 1213.98 619.768 1214.82 619.213 1216.01 618.576 1217.2 617.939 1218.57 617.357 1220.12 616.829 1221.67 616.301 1223.37 615.864 1225.21 615.519 1227.05 615.173 1228.91 615 1230.78 615ZM1233.49 644.211C1231.04 644.211 1228.91 644.42 1227.1 644.839 1225.3 645.258 1223.8 645.876 1222.61 646.696 1221.42 647.515 1220.55 648.497 1219.99 649.644 1219.43 650.791 1219.15 652.11 1219.15 653.602 1219.15 656.151 1219.95 658.18 1221.56 659.691 1223.16 661.201 1225.41 661.956 1228.29 661.956 1230.64 661.956 1232.81 661.356 1234.82 660.155 1236.82 658.953 1238.92 657.115 1241.12 654.64L1241.12 644.211 1233.49 644.211Z" fill-rule="evenodd"/><path d="M1290.27 615C1293.82 615 1296.85 615.684 1299.35 617.051 1301.85 618.418 1303.89 620.289 1305.46 622.664 1307.04 625.039 1308.19 627.801 1308.91 630.949 1309.64 634.097 1310 637.435 1310 640.961 1310 645.207 1309.54 649.021 1308.61 652.403 1307.69 655.785 1306.33 658.655 1304.54 661.012 1302.74 663.369 1300.53 665.186 1297.88 666.463 1295.24 667.741 1292.21 668.379 1288.8 668.379 1287.36 668.379 1286.01 668.235 1284.78 667.947 1283.55 667.659 1282.35 667.21 1281.17 666.598 1279.99 665.987 1278.82 665.213 1277.66 664.277 1276.5 663.342 1275.27 662.244 1273.97 660.985L1273.97 685.273C1273.97 685.561 1273.89 685.812 1273.75 686.029 1273.6 686.244 1273.37 686.424 1273.04 686.568 1272.72 686.712 1272.26 686.82 1271.68 686.892 1271.1 686.964 1270.36 687 1269.46 687 1268.59 687 1267.86 686.964 1267.28 686.892 1266.7 686.82 1266.24 686.712 1265.9 686.568 1265.55 686.424 1265.32 686.244 1265.19 686.029 1265.06 685.812 1265 685.561 1265 685.273L1265 617.429C1265 617.105 1265.05 616.844 1265.16 616.646 1265.27 616.448 1265.49 616.277 1265.82 616.133 1266.14 615.989 1266.56 615.89 1267.07 615.837 1267.57 615.783 1268.19 615.755 1268.91 615.755 1269.67 615.755 1270.3 615.783 1270.79 615.837 1271.28 615.89 1271.68 615.989 1272.01 616.133 1272.34 616.277 1272.56 616.448 1272.69 616.646 1272.82 616.844 1272.88 617.105 1272.88 617.429L1272.88 623.959C1274.37 622.448 1275.8 621.135 1277.17 620.019 1278.55 618.904 1279.94 617.977 1281.33 617.24 1282.73 616.502 1284.16 615.944 1285.62 615.566 1287.09 615.189 1288.64 615 1290.27 615ZM1288.57 622.664C1287.4 622.664 1286.25 622.835 1285.12 623.177 1283.99 623.519 1282.84 624.058 1281.68 624.796 1280.51 625.534 1279.29 626.505 1278.01 627.711 1276.74 628.916 1275.39 630.4 1273.97 632.163L1273.97 651.486C1276.45 654.472 1278.8 656.757 1281.02 658.34 1283.24 659.923 1285.58 660.715 1288.02 660.715 1290.28 660.715 1292.22 660.175 1293.84 659.096 1295.47 658.016 1296.78 656.577 1297.78 654.778 1298.78 652.979 1299.52 650.964 1300 648.733 1300.47 646.502 1300.71 644.253 1300.71 641.986 1300.71 639.504 1300.52 637.102 1300.13 634.781 1299.75 632.46 1299.09 630.4 1298.16 628.601 1297.23 626.802 1295.99 625.363 1294.42 624.283 1292.85 623.204 1290.9 622.664 1288.57 622.664Z" fill-rule="evenodd"/><path d="M1046.35 616C1047.39 616 1048.22 616.027 1048.84 616.081 1049.47 616.135 1049.95 616.234 1050.29 616.378 1050.63 616.523 1050.88 616.703 1051.04 616.919 1051.21 617.135 1051.36 617.406 1051.5 617.73L1065.13 657.838 1065.35 658.486 1065.51 657.838 1078.98 617.73C1079.05 617.406 1079.18 617.135 1079.36 616.919 1079.54 616.703 1079.8 616.523 1080.14 616.378 1080.48 616.234 1080.94 616.135 1081.53 616.081 1082.12 616.027 1082.9 616 1083.87 616 1084.69 616 1085.37 616.018 1085.91 616.054 1086.44 616.09 1086.86 616.18 1087.17 616.324 1087.47 616.469 1087.69 616.64 1087.81 616.838 1087.94 617.036 1088 617.28 1088 617.568 1088 617.712 1087.99 617.865 1087.97 618.027 1087.96 618.189 1087.93 618.36 1087.89 618.541 1087.86 618.721 1087.81 618.919 1087.76 619.135 1087.7 619.352 1087.64 619.586 1087.57 619.838L1071.09 666.054C1070.95 666.451 1070.76 666.775 1070.53 667.027 1070.3 667.279 1069.95 667.477 1069.48 667.621 1069.02 667.766 1068.43 667.865 1067.71 667.919 1066.99 667.973 1066.1 668 1065.03 668 1063.95 668 1063.06 667.964 1062.34 667.892 1061.63 667.82 1061.05 667.712 1060.6 667.567 1060.15 667.424 1059.8 667.225 1059.55 666.973 1059.3 666.721 1059.1 666.414 1058.96 666.054L1042.54 619.838C1042.39 619.406 1042.28 619.027 1042.19 618.703 1042.1 618.379 1042.04 618.135 1042.03 617.973 1042.01 617.811 1042 617.676 1042 617.568 1042 617.28 1042.07 617.027 1042.21 616.811 1042.36 616.595 1042.6 616.423 1042.94 616.297 1043.28 616.171 1043.73 616.09 1044.28 616.054 1044.84 616.018 1045.52 616 1046.35 616Z" fill-rule="evenodd"/><path d="M1008.61 1166C1009.51 1166 1010.25 1166.04 1010.84 1166.13 1011.43 1166.22 1011.9 1166.33 1012.26 1166.46 1012.62 1166.58 1012.87 1166.75 1013.01 1166.97 1013.16 1167.18 1013.23 1167.44 1013.23 1167.72L1013.23 1227.98 1038.12 1227.98C1038.44 1227.98 1038.72 1228.06 1038.95 1228.22 1039.19 1228.38 1039.38 1228.61 1039.54 1228.92 1039.7 1229.22 1039.82 1229.63 1039.89 1230.13 1039.96 1230.63 1040 1231.24 1040 1231.96 1040 1232.68 1039.96 1233.28 1039.89 1233.77 1039.82 1234.25 1039.7 1234.66 1039.54 1235 1039.38 1235.34 1039.19 1235.6 1038.95 1235.76 1038.72 1235.92 1038.44 1236 1038.12 1236L1007.43 1236C1006.61 1236 1005.83 1235.72 1005.1 1235.17 1004.37 1234.61 1004 1233.63 1004 1232.23L1004 1167.72C1004 1167.44 1004.07 1167.18 1004.21 1166.97 1004.36 1166.75 1004.61 1166.58 1004.97 1166.46 1005.32 1166.33 1005.81 1166.22 1006.41 1166.13 1007.02 1166.04 1007.76 1166 1008.61 1166Z" fill-rule="evenodd"/><path d="M1267.12 1172C1268.02 1172 1268.77 1172.04 1269.35 1172.11 1269.93 1172.18 1270.38 1172.29 1270.71 1172.45 1271.03 1172.62 1271.27 1172.8 1271.41 1173.02 1271.56 1173.23 1271.63 1173.46 1271.63 1173.71L1271.63 1185.17 1284.2 1185.17C1284.49 1185.17 1284.75 1185.23 1284.97 1185.36 1285.18 1185.48 1285.37 1185.7 1285.54 1186 1285.7 1186.3 1285.82 1186.69 1285.89 1187.15 1285.96 1187.62 1286 1188.19 1286 1188.87 1286 1190.15 1285.84 1191.08 1285.51 1191.65 1285.18 1192.22 1284.75 1192.51 1284.2 1192.51L1271.63 1192.51 1271.63 1219.38C1271.63 1222.7 1272.13 1225.21 1273.13 1226.91 1274.13 1228.6 1275.91 1229.45 1278.49 1229.45 1279.32 1229.45 1280.07 1229.37 1280.72 1229.21 1281.37 1229.05 1281.95 1228.88 1282.46 1228.7 1282.97 1228.52 1283.41 1228.35 1283.77 1228.19 1284.13 1228.03 1284.46 1227.95 1284.75 1227.95 1284.93 1227.95 1285.1 1228 1285.27 1228.09 1285.43 1228.17 1285.56 1228.34 1285.65 1228.59 1285.74 1228.84 1285.82 1229.18 1285.89 1229.61 1285.96 1230.04 1286 1230.58 1286 1231.22 1286 1232.25 1285.93 1233.07 1285.78 1233.68 1285.64 1234.29 1285.42 1234.73 1285.13 1235.02 1284.84 1235.3 1284.4 1235.57 1283.82 1235.82 1283.24 1236.07 1282.58 1236.28 1281.84 1236.44 1281.09 1236.6 1280.3 1236.73 1279.47 1236.84 1278.64 1236.95 1277.8 1237 1276.97 1237 1274.43 1237 1272.25 1236.67 1270.44 1236.01 1268.62 1235.35 1267.13 1234.35 1265.97 1233.01 1264.81 1231.67 1263.97 1229.98 1263.44 1227.92 1262.92 1225.87 1262.65 1223.45 1262.65 1220.67L1262.65 1192.51 1255.8 1192.51C1255.25 1192.51 1254.82 1192.22 1254.49 1191.65 1254.16 1191.08 1254 1190.15 1254 1188.87 1254 1188.19 1254.05 1187.62 1254.14 1187.15 1254.23 1186.69 1254.34 1186.3 1254.49 1186 1254.64 1185.7 1254.83 1185.48 1255.06 1185.36 1255.3 1185.23 1255.56 1185.17 1255.85 1185.17L1262.65 1185.17 1262.65 1173.71C1262.65 1173.46 1262.72 1173.23 1262.84 1173.02 1262.97 1172.8 1263.21 1172.62 1263.55 1172.45 1263.9 1172.29 1264.36 1172.18 1264.94 1172.11 1265.52 1172.04 1266.25 1172 1267.12 1172Z" fill-rule="evenodd"/><path d="M1064.78 1184C1068.29 1184 1071.26 1184.39 1073.72 1185.18 1076.17 1185.96 1078.15 1187.12 1079.67 1188.64 1081.19 1190.15 1082.29 1192.04 1082.97 1194.29 1083.66 1196.54 1084 1199.17 1084 1202.17L1084 1234.7C1084 1235.12 1083.86 1235.45 1083.57 1235.66 1083.28 1235.87 1082.88 1236.04 1082.38 1236.14 1081.87 1236.25 1081.13 1236.3 1080.16 1236.3 1079.22 1236.3 1078.47 1236.25 1077.91 1236.14 1077.35 1236.04 1076.95 1235.87 1076.69 1235.66 1076.44 1235.45 1076.31 1235.12 1076.31 1234.7L1076.31 1229.87C1074.19 1232.12 1071.81 1233.87 1069.2 1235.12 1066.58 1236.38 1063.81 1237 1060.89 1237 1058.33 1237 1056.01 1236.67 1053.93 1236.01 1051.86 1235.35 1050.09 1234.39 1048.63 1233.14 1047.17 1231.89 1046.03 1230.35 1045.22 1228.53 1044.41 1226.71 1044 1224.64 1044 1222.32 1044 1219.6 1044.56 1217.24 1045.68 1215.24 1046.8 1213.24 1048.4 1211.58 1050.5 1210.26 1052.59 1208.94 1055.15 1207.95 1058.18 1207.28 1061.21 1206.62 1064.62 1206.29 1068.41 1206.29L1075.12 1206.29 1075.12 1202.54C1075.12 1200.68 1074.92 1199.04 1074.53 1197.61 1074.13 1196.18 1073.49 1194.99 1072.61 1194.05 1071.72 1193.1 1070.58 1192.39 1069.17 1191.9 1067.76 1191.42 1066.03 1191.18 1063.97 1191.18 1061.77 1191.18 1059.8 1191.44 1058.05 1191.96 1056.3 1192.48 1054.76 1193.05 1053.45 1193.67 1052.13 1194.3 1051.03 1194.87 1050.14 1195.39 1049.26 1195.91 1048.6 1196.16 1048.17 1196.16 1047.88 1196.16 1047.63 1196.09 1047.41 1195.95 1047.19 1195.81 1047 1195.59 1046.84 1195.31 1046.68 1195.02 1046.56 1194.66 1046.49 1194.21 1046.42 1193.76 1046.38 1193.27 1046.38 1192.73 1046.38 1191.84 1046.44 1191.14 1046.57 1190.62 1046.7 1190.1 1047 1189.61 1047.49 1189.14 1047.98 1188.68 1048.82 1188.14 1050.01 1187.51 1051.2 1186.88 1052.57 1186.31 1054.12 1185.8 1055.67 1185.28 1057.37 1184.85 1059.21 1184.51 1061.05 1184.17 1062.91 1184 1064.78 1184ZM1067.49 1212.67C1065.04 1212.67 1062.91 1212.88 1061.1 1213.29 1059.3 1213.7 1057.8 1214.3 1056.61 1215.11 1055.42 1215.91 1054.55 1216.88 1053.99 1218 1053.43 1219.13 1053.15 1220.42 1053.15 1221.89 1053.15 1224.39 1053.95 1226.38 1055.56 1227.86 1057.16 1229.35 1059.41 1230.09 1062.29 1230.09 1064.64 1230.09 1066.81 1229.5 1068.82 1228.32 1070.82 1227.14 1072.92 1225.34 1075.12 1222.91L1075.12 1212.67 1067.49 1212.67Z" fill-rule="evenodd"/><path d="M1165.48 1184C1169.43 1184 1172.87 1184.59 1175.8 1185.77 1178.73 1186.95 1181.18 1188.66 1183.13 1190.91 1185.09 1193.16 1186.56 1195.9 1187.53 1199.11 1188.51 1202.33 1189 1205.95 1189 1209.99 1189 1213.92 1188.48 1217.54 1187.45 1220.84 1186.42 1224.15 1184.88 1227 1182.84 1229.39 1180.8 1231.78 1178.24 1233.65 1175.16 1234.99 1172.08 1236.33 1168.52 1237 1164.47 1237 1160.52 1237 1157.08 1236.41 1154.15 1235.23 1151.21 1234.05 1148.77 1232.34 1146.81 1230.09 1144.86 1227.84 1143.4 1225.1 1142.44 1221.89 1141.48 1218.67 1141 1215.03 1141 1210.96 1141 1207.03 1141.51 1203.41 1142.52 1200.1 1143.53 1196.8 1145.06 1193.95 1147.11 1191.56 1149.15 1189.16 1151.7 1187.3 1154.76 1185.98 1157.82 1184.66 1161.39 1184 1165.48 1184ZM1165.13 1191.4C1162.52 1191.4 1160.26 1191.86 1158.38 1192.79 1156.5 1193.72 1154.94 1195.03 1153.73 1196.73 1152.51 1198.42 1151.6 1200.43 1151.01 1202.76 1150.42 1205.08 1150.12 1207.61 1150.12 1210.37 1150.12 1213.01 1150.36 1215.49 1150.85 1217.81 1151.33 1220.14 1152.14 1222.16 1153.27 1223.9 1154.4 1225.63 1155.91 1227.01 1157.82 1228.02 1159.72 1229.04 1162.08 1229.55 1164.92 1229.55 1167.5 1229.55 1169.74 1229.09 1171.65 1228.16 1173.55 1227.23 1175.11 1225.92 1176.33 1224.25 1177.55 1222.57 1178.44 1220.57 1179.02 1218.24 1179.59 1215.92 1179.88 1213.37 1179.88 1210.58 1179.88 1207.97 1179.64 1205.51 1179.15 1203.18 1178.67 1200.86 1177.87 1198.83 1176.76 1197.08 1175.65 1195.33 1174.14 1193.94 1172.24 1192.92 1170.34 1191.9 1167.97 1191.4 1165.13 1191.4Z" fill-rule="evenodd"/><path d="M1093.49 1185C1094.59 1185 1095.45 1185.03 1096.07 1185.08 1096.69 1185.13 1097.18 1185.23 1097.55 1185.38 1097.91 1185.52 1098.18 1185.73 1098.34 1186 1098.5 1186.26 1098.68 1186.63 1098.86 1187.1L1112.94 1225.93 1113.1 1225.93 1126.69 1186.88C1126.91 1186.2 1127.17 1185.76 1127.48 1185.56 1127.79 1185.37 1128.26 1185.22 1128.88 1185.13 1129.5 1185.04 1130.39 1185 1131.56 1185 1132.59 1185 1133.43 1185.04 1134.08 1185.13 1134.74 1185.22 1135.22 1185.39 1135.53 1185.65 1135.84 1185.9 1136 1186.24 1136 1186.67 1136 1187.1 1135.89 1187.64 1135.67 1188.28L1117.98 1236.42 1111.4 1254.22C1111.19 1254.8 1110.63 1255.24 1109.73 1255.54 1108.84 1255.85 1107.48 1256 1105.65 1256 1104.7 1256 1103.94 1255.96 1103.35 1255.87 1102.77 1255.78 1102.32 1255.62 1102.01 1255.41 1101.7 1255.19 1101.53 1254.91 1101.49 1254.55 1101.45 1254.19 1101.54 1253.76 1101.76 1253.26L1108.56 1236.42C1108.23 1236.28 1107.92 1236.04 1107.62 1235.72 1107.33 1235.4 1107.13 1235.06 1107.02 1234.7L1089.44 1188.44C1089.15 1187.69 1089 1187.1 1089 1186.67 1089 1186.24 1089.15 1185.9 1089.44 1185.65 1089.73 1185.39 1090.21 1185.22 1090.86 1185.13 1091.52 1185.04 1092.4 1185 1093.49 1185Z" fill-rule="evenodd"/><path d="M1206.49 1185C1207.36 1185 1208.08 1185.03 1208.66 1185.08 1209.23 1185.13 1209.69 1185.24 1210.04 1185.4 1210.38 1185.56 1210.62 1185.74 1210.77 1185.93 1210.91 1186.13 1210.98 1186.37 1210.98 1186.65L1210.98 1214.6C1210.98 1217.41 1211.19 1219.66 1211.61 1221.35 1212.02 1223.04 1212.65 1224.48 1213.5 1225.67 1214.35 1226.86 1215.42 1227.78 1216.72 1228.44 1218.02 1229.1 1219.54 1229.43 1221.27 1229.43 1223.51 1229.43 1225.73 1228.64 1227.95 1227.08 1230.17 1225.52 1232.53 1223.22 1235.02 1220.2L1235.02 1186.65C1235.02 1186.37 1235.08 1186.13 1235.21 1185.93 1235.33 1185.74 1235.57 1185.56 1235.94 1185.4 1236.3 1185.24 1236.76 1185.13 1237.32 1185.08 1237.88 1185.03 1238.61 1185 1239.51 1185 1240.37 1185 1241.1 1185.03 1241.67 1185.08 1242.25 1185.13 1242.7 1185.24 1243.03 1185.4 1243.35 1185.56 1243.59 1185.74 1243.76 1185.93 1243.92 1186.13 1244 1186.37 1244 1186.65L1244 1234.65C1244 1234.94 1243.94 1235.18 1243.81 1235.37 1243.68 1235.57 1243.46 1235.74 1243.13 1235.88 1242.81 1236.02 1242.39 1236.13 1241.86 1236.2 1241.34 1236.27 1240.7 1236.31 1239.94 1236.31 1239.11 1236.31 1238.43 1236.27 1237.91 1236.2 1237.39 1236.13 1236.97 1236.02 1236.67 1235.88 1236.36 1235.74 1236.15 1235.57 1236.04 1235.37 1235.94 1235.18 1235.88 1234.94 1235.88 1234.65L1235.88 1228.31C1233.1 1231.33 1230.36 1233.53 1227.65 1234.92 1224.95 1236.31 1222.21 1237 1219.43 1237 1216.18 1237 1213.45 1236.47 1211.23 1235.4 1209.01 1234.33 1207.21 1232.88 1205.84 1231.05 1204.47 1229.22 1203.49 1227.09 1202.89 1224.65 1202.3 1222.22 1202 1219.26 1202 1215.77L1202 1186.65C1202 1186.37 1202.06 1186.13 1202.19 1185.93 1202.32 1185.74 1202.56 1185.56 1202.92 1185.4 1203.28 1185.24 1203.75 1185.13 1204.33 1185.08 1204.9 1185.03 1205.63 1185 1206.49 1185Z" fill-rule="evenodd"/><path d="M941.904 1735C943.932 1735 945.905 1735.19 947.824 1735.56 949.743 1735.94 951.518 1736.41 953.147 1736.98 954.777 1737.55 956.225 1738.21 957.492 1738.96 958.76 1739.71 959.638 1740.33 960.126 1740.81 960.615 1741.29 960.932 1741.66 961.077 1741.91 961.222 1742.16 961.339 1742.45 961.43 1742.79 961.52 1743.13 961.593 1743.53 961.647 1744 961.701 1744.46 961.729 1745.01 961.729 1745.66 961.729 1746.37 961.692 1746.98 961.62 1747.48 961.547 1747.98 961.438 1748.4 961.292 1748.73 961.146 1749.07 960.973 1749.32 960.773 1749.48 960.573 1749.64 960.327 1749.72 960.036 1749.72 959.526 1749.72 958.817 1749.38 957.906 1748.68 956.996 1747.98 955.822 1747.22 954.384 1746.38 952.946 1745.54 951.199 1744.77 949.142 1744.08 947.086 1743.38 944.62 1743.03 941.744 1743.03 938.613 1743.03 935.764 1743.65 933.198 1744.88 930.632 1746.11 928.439 1747.92 926.619 1750.31 924.799 1752.71 923.388 1755.62 922.387 1759.07 921.386 1762.51 920.885 1766.45 920.885 1770.87 920.885 1775.27 921.367 1779.15 922.332 1782.52 923.297 1785.89 924.68 1788.71 926.482 1790.98 928.284 1793.25 930.495 1794.96 933.116 1796.12 935.737 1797.28 938.704 1797.86 942.016 1797.86 944.819 1797.86 947.267 1797.52 949.36 1796.84 951.453 1796.17 953.237 1795.41 954.711 1794.57 956.185 1793.73 957.395 1792.97 958.342 1792.29 959.288 1791.61 960.035 1791.28 960.581 1791.28 960.836 1791.28 961.054 1791.33 961.236 1791.44 961.418 1791.54 961.563 1791.75 961.672 1792.05 961.782 1792.36 961.864 1792.77 961.918 1793.31 961.973 1793.85 962 1794.52 962 1795.34 962 1795.92 961.982 1796.42 961.946 1796.84 961.91 1797.27 961.846 1797.65 961.756 1797.97 961.665 1798.29 961.548 1798.58 961.403 1798.83 961.258 1799.08 961.005 1799.38 960.642 1799.74 960.28 1800.09 959.52 1800.64 958.361 1801.37 957.203 1802.1 955.763 1802.81 954.043 1803.51 952.323 1804.21 950.35 1804.8 948.123 1805.28 945.896 1805.76 943.461 1806 940.818 1806 936.256 1806 932.137 1805.25 928.462 1803.75 924.787 1802.25 921.655 1800.04 919.065 1797.11 916.477 1794.18 914.485 1790.57 913.091 1786.27 911.697 1781.97 911 1777.01 911 1771.41 911 1765.66 911.751 1760.54 913.254 1756.04 914.757 1751.55 916.866 1747.73 919.581 1744.61 922.297 1741.49 925.547 1739.11 929.331 1737.46 933.115 1735.82 937.306 1735 941.904 1735Z" fill-rule="evenodd"/><path d="M993.99 1753C998.019 1753 1001.53 1753.59 1004.52 1754.77 1007.52 1755.95 1010.01 1757.66 1012.01 1759.91 1014.01 1762.16 1015.5 1764.9 1016.5 1768.11 1017.5 1771.33 1018 1774.95 1018 1778.99 1018 1782.92 1017.47 1786.54 1016.42 1789.84 1015.37 1793.15 1013.8 1796 1011.71 1798.39 1009.62 1800.78 1007.01 1802.65 1003.87 1803.99 1000.73 1805.33 997.093 1806 992.955 1806 988.927 1806 985.415 1805.41 982.421 1804.23 979.426 1803.05 976.931 1801.34 974.934 1799.09 972.938 1796.84 971.45 1794.1 970.47 1790.89 969.49 1787.67 969 1784.03 969 1779.96 969 1776.03 969.517 1772.41 970.552 1769.1 971.586 1765.8 973.147 1762.95 975.234 1760.56 977.321 1758.16 979.925 1756.3 983.046 1754.98 986.168 1753.66 989.816 1753 993.99 1753ZM993.637 1760.4C990.964 1760.4 988.665 1760.86 986.742 1761.79 984.82 1762.72 983.236 1764.03 981.99 1765.73 980.745 1767.42 979.821 1769.43 979.216 1771.76 978.612 1774.08 978.31 1776.62 978.31 1779.37 978.31 1782.01 978.557 1784.49 979.052 1786.81 979.546 1789.14 980.37 1791.16 981.524 1792.9 982.677 1794.63 984.225 1796.01 986.166 1797.02 988.107 1798.04 990.524 1798.55 993.417 1798.55 996.055 1798.55 998.344 1798.09 1000.28 1797.16 1002.23 1796.23 1003.82 1794.92 1005.06 1793.25 1006.31 1791.57 1007.22 1789.57 1007.81 1787.24 1008.4 1784.92 1008.69 1782.37 1008.69 1779.58 1008.69 1776.97 1008.44 1774.51 1007.95 1772.18 1007.45 1769.86 1006.64 1767.83 1005.5 1766.08 1004.37 1764.33 1002.83 1762.94 1000.89 1761.92 998.948 1760.9 996.53 1760.4 993.637 1760.4Z" fill-rule="evenodd"/><path d="M1055.55 1753C1058.8 1753 1061.54 1753.54 1063.76 1754.62 1065.98 1755.71 1067.78 1757.16 1069.15 1758.97 1070.52 1760.78 1071.51 1762.9 1072.11 1765.33 1072.7 1767.77 1073 1770.69 1073 1774.1L1073 1803.35C1073 1803.63 1072.93 1803.87 1072.78 1804.07 1072.64 1804.26 1072.4 1804.43 1072.08 1804.57 1071.75 1804.72 1071.3 1804.82 1070.72 1804.89 1070.15 1804.96 1069.42 1805 1068.56 1805 1067.65 1805 1066.91 1804.96 1066.33 1804.89 1065.76 1804.82 1065.3 1804.72 1064.98 1804.57 1064.65 1804.43 1064.42 1804.26 1064.27 1804.07 1064.13 1803.87 1064.06 1803.63 1064.06 1803.35L1064.06 1775.27C1064.06 1772.54 1063.84 1770.33 1063.41 1768.66 1062.97 1766.99 1062.34 1765.56 1061.51 1764.35 1060.68 1763.14 1059.6 1762.22 1058.29 1761.58 1056.97 1760.94 1055.44 1760.62 1053.71 1760.62 1051.47 1760.62 1049.23 1761.4 1046.99 1762.96 1044.75 1764.53 1042.4 1766.82 1039.94 1769.84L1039.94 1803.35C1039.94 1803.63 1039.87 1803.87 1039.72 1804.07 1039.58 1804.26 1039.35 1804.43 1039.02 1804.57 1038.7 1804.72 1038.24 1804.82 1037.67 1804.89 1037.09 1804.96 1036.35 1805 1035.44 1805 1034.58 1805 1033.85 1804.96 1033.28 1804.89 1032.7 1804.82 1032.24 1804.72 1031.89 1804.57 1031.55 1804.43 1031.32 1804.26 1031.19 1804.07 1031.06 1803.87 1031 1803.63 1031 1803.35L1031 1755.4C1031 1755.11 1031.05 1754.87 1031.16 1754.68 1031.27 1754.48 1031.49 1754.31 1031.81 1754.15 1032.14 1753.99 1032.55 1753.88 1033.06 1753.83 1033.56 1753.77 1034.23 1753.75 1035.06 1753.75 1035.86 1753.75 1036.52 1753.77 1037.04 1753.83 1037.57 1753.88 1037.97 1753.99 1038.26 1754.15 1038.55 1754.31 1038.76 1754.48 1038.88 1754.68 1039.01 1754.87 1039.07 1755.11 1039.07 1755.4L1039.07 1761.74C1041.82 1758.72 1044.56 1756.51 1047.29 1755.1 1050.01 1753.7 1052.77 1753 1055.55 1753Z" fill-rule="evenodd"/><path d="M1104.68 1753C1105.96 1753 1107.24 1753.11 1108.52 1753.32 1109.81 1753.54 1110.96 1753.8 1111.99 1754.13 1113.03 1754.45 1113.91 1754.8 1114.64 1755.17 1115.36 1755.55 1115.92 1755.88 1116.29 1756.16 1116.66 1756.45 1116.91 1756.7 1117.04 1756.91 1117.16 1757.13 1117.25 1757.37 1117.3 1757.64 1117.36 1757.9 1117.41 1758.23 1117.46 1758.63 1117.52 1759.02 1117.54 1759.5 1117.54 1760.07 1117.54 1760.68 1117.52 1761.21 1117.46 1761.65 1117.41 1762.1 1117.32 1762.47 1117.2 1762.75 1117.07 1763.04 1116.92 1763.24 1116.74 1763.37 1116.57 1763.49 1116.37 1763.56 1116.16 1763.56 1115.84 1763.56 1115.37 1763.36 1114.77 1762.97 1114.16 1762.57 1113.38 1762.16 1112.42 1761.71 1111.46 1761.26 1110.33 1760.84 1109.03 1760.45 1107.73 1760.06 1106.25 1759.86 1104.57 1759.86 1103.08 1759.86 1101.76 1760.03 1100.62 1760.37 1099.49 1760.71 1098.55 1761.19 1097.82 1761.82 1097.09 1762.44 1096.54 1763.18 1096.17 1764.04 1095.79 1764.9 1095.61 1765.83 1095.61 1766.83 1095.61 1768.22 1095.96 1769.39 1096.68 1770.34 1097.39 1771.28 1098.31 1772.11 1099.45 1772.83 1100.59 1773.54 1101.89 1774.19 1103.35 1774.76 1104.81 1775.33 1106.29 1775.92 1107.8 1776.53 1109.32 1777.13 1110.81 1777.81 1112.29 1778.56 1113.76 1779.31 1115.07 1780.22 1116.21 1781.3 1117.35 1782.37 1118.27 1783.65 1118.96 1785.15 1119.65 1786.65 1120 1788.44 1120 1790.51 1120 1792.98 1119.55 1795.18 1118.64 1797.1 1117.73 1799.03 1116.44 1800.66 1114.77 1801.98 1113.1 1803.3 1111.1 1804.3 1108.79 1804.98 1106.48 1805.66 1103.93 1806 1101.16 1806 1099.45 1806 1097.82 1805.87 1096.27 1805.6 1094.73 1805.33 1093.34 1804.99 1092.11 1804.58 1090.88 1804.17 1089.84 1803.74 1088.99 1803.29 1088.13 1802.85 1087.51 1802.45 1087.12 1802.09 1086.73 1801.73 1086.44 1801.23 1086.27 1800.59 1086.09 1799.94 1086 1799.07 1086 1797.96 1086 1797.28 1086.04 1796.71 1086.11 1796.25 1086.18 1795.78 1086.27 1795.41 1086.37 1795.12 1086.48 1794.84 1086.63 1794.63 1086.83 1794.51 1087.02 1794.38 1087.25 1794.32 1087.49 1794.32 1087.89 1794.32 1088.46 1794.56 1089.23 1795.04 1089.99 1795.52 1090.94 1796.05 1092.06 1796.62 1093.18 1797.19 1094.5 1797.72 1096.03 1798.2 1097.56 1798.69 1099.33 1798.93 1101.32 1798.93 1102.81 1798.93 1104.17 1798.77 1105.38 1798.44 1106.58 1798.12 1107.63 1797.65 1108.52 1797.02 1109.41 1796.4 1110.1 1795.6 1110.58 1794.64 1111.06 1793.67 1111.3 1792.53 1111.3 1791.21 1111.3 1789.85 1110.95 1788.71 1110.26 1787.78 1109.57 1786.85 1108.65 1786.03 1107.51 1785.31 1106.37 1784.6 1105.09 1783.97 1103.67 1783.41 1102.24 1782.86 1100.78 1782.28 1099.26 1781.67 1097.75 1781.06 1096.27 1780.38 1094.83 1779.61 1093.39 1778.84 1092.1 1777.9 1090.96 1776.79 1089.83 1775.69 1088.91 1774.36 1088.22 1772.83 1087.52 1771.29 1087.17 1769.45 1087.17 1767.31 1087.17 1765.41 1087.54 1763.6 1088.27 1761.87 1089 1760.14 1090.09 1758.62 1091.55 1757.31 1093.01 1756.01 1094.83 1754.97 1097.02 1754.18 1099.21 1753.39 1101.76 1753 1104.68 1753Z" fill-rule="evenodd"/><path d="M1154.48 1753C1158.32 1753 1161.59 1753.61 1164.29 1754.82 1166.99 1756.04 1169.21 1757.67 1170.95 1759.73 1172.68 1761.78 1173.96 1764.19 1174.78 1766.96 1175.59 1769.73 1176 1772.69 1176 1775.83L1176 1777.44C1176 1778.83 1175.65 1779.82 1174.94 1780.41 1174.23 1781 1173.42 1781.3 1172.51 1781.3L1140.29 1781.3C1140.29 1783.97 1140.57 1786.39 1141.11 1788.53 1141.66 1790.67 1142.57 1792.51 1143.84 1794.05 1145.12 1795.59 1146.77 1796.76 1148.81 1797.59 1150.85 1798.41 1153.35 1798.82 1156.29 1798.82 1158.62 1798.82 1160.7 1798.63 1162.52 1798.26 1164.34 1797.88 1165.92 1797.46 1167.24 1797 1168.57 1796.53 1169.67 1796.11 1170.52 1795.74 1171.38 1795.36 1172.02 1795.18 1172.46 1795.18 1172.72 1795.18 1172.94 1795.24 1173.14 1795.36 1173.34 1795.49 1173.5 1795.68 1173.61 1795.93 1173.72 1796.18 1173.8 1796.52 1173.85 1796.97 1173.91 1797.42 1173.93 1797.96 1173.93 1798.6 1173.93 1799.07 1173.92 1799.47 1173.88 1799.81 1173.84 1800.15 1173.8 1800.45 1173.74 1800.72 1173.69 1800.99 1173.6 1801.23 1173.47 1801.45 1173.35 1801.66 1173.18 1801.86 1172.98 1802.06 1172.78 1802.26 1172.2 1802.58 1171.22 1803.03 1170.24 1803.47 1168.97 1803.91 1167.41 1804.34 1165.86 1804.77 1164.05 1805.15 1162.01 1805.49 1159.96 1805.83 1157.78 1806 1155.46 1806 1151.43 1806 1147.91 1805.45 1144.89 1804.34 1141.86 1803.23 1139.32 1801.59 1137.25 1799.41 1135.18 1797.23 1133.63 1794.5 1132.58 1791.21 1131.53 1787.92 1131 1784.1 1131 1779.74 1131 1775.6 1131.54 1771.87 1132.63 1768.57 1133.72 1765.26 1135.28 1762.46 1137.33 1760.15 1139.38 1757.85 1141.85 1756.08 1144.75 1754.85 1147.65 1753.62 1150.89 1753 1154.48 1753ZM1154.02 1759.91C1151.79 1759.91 1149.84 1760.32 1148.17 1761.15 1146.49 1761.97 1145.09 1763.06 1143.96 1764.41 1142.83 1765.77 1141.95 1767.35 1141.33 1769.16 1140.71 1770.96 1140.37 1772.85 1140.29 1774.81L1166.98 1774.81C1167.09 1770.17 1166.04 1766.52 1163.83 1763.88 1161.63 1761.24 1158.36 1759.91 1154.02 1759.91Z" fill-rule="evenodd"/><path d="M1213.55 1753C1216.8 1753 1219.54 1753.54 1221.76 1754.62 1223.98 1755.71 1225.78 1757.16 1227.15 1758.97 1228.52 1760.78 1229.51 1762.9 1230.11 1765.33 1230.7 1767.77 1231 1770.69 1231 1774.1L1231 1803.35C1231 1803.63 1230.93 1803.87 1230.78 1804.07 1230.64 1804.26 1230.4 1804.43 1230.08 1804.57 1229.75 1804.72 1229.3 1804.82 1228.72 1804.89 1228.15 1804.96 1227.42 1805 1226.56 1805 1225.65 1805 1224.91 1804.96 1224.33 1804.89 1223.76 1804.82 1223.3 1804.72 1222.98 1804.57 1222.65 1804.43 1222.42 1804.26 1222.27 1804.07 1222.13 1803.87 1222.06 1803.63 1222.06 1803.35L1222.06 1775.27C1222.06 1772.54 1221.84 1770.33 1221.41 1768.66 1220.97 1766.99 1220.34 1765.56 1219.51 1764.35 1218.68 1763.14 1217.6 1762.22 1216.29 1761.58 1214.97 1760.94 1213.44 1760.62 1211.71 1760.62 1209.47 1760.62 1207.23 1761.4 1204.99 1762.96 1202.75 1764.53 1200.4 1766.82 1197.94 1769.84L1197.94 1803.35C1197.94 1803.63 1197.87 1803.87 1197.72 1804.07 1197.58 1804.26 1197.35 1804.43 1197.02 1804.57 1196.7 1804.72 1196.24 1804.82 1195.67 1804.89 1195.09 1804.96 1194.35 1805 1193.44 1805 1192.58 1805 1191.85 1804.96 1191.28 1804.89 1190.7 1804.82 1190.24 1804.72 1189.89 1804.57 1189.55 1804.43 1189.32 1804.26 1189.19 1804.07 1189.06 1803.87 1189 1803.63 1189 1803.35L1189 1755.4C1189 1755.11 1189.05 1754.87 1189.16 1754.68 1189.27 1754.48 1189.49 1754.31 1189.81 1754.15 1190.14 1753.99 1190.55 1753.88 1191.06 1753.83 1191.56 1753.77 1192.23 1753.75 1193.06 1753.75 1193.86 1753.75 1194.52 1753.77 1195.04 1753.83 1195.57 1753.88 1195.97 1753.99 1196.26 1754.15 1196.55 1754.31 1196.76 1754.48 1196.89 1754.68 1197.01 1754.87 1197.07 1755.11 1197.07 1755.4L1197.07 1761.74C1199.82 1758.72 1202.56 1756.51 1205.29 1755.1 1208.01 1753.7 1210.77 1753 1213.55 1753Z" fill-rule="evenodd"/><path d="M1262.68 1753C1263.96 1753 1265.24 1753.11 1266.52 1753.32 1267.81 1753.54 1268.96 1753.8 1269.99 1754.13 1271.03 1754.45 1271.91 1754.8 1272.64 1755.17 1273.37 1755.55 1273.92 1755.88 1274.29 1756.16 1274.66 1756.45 1274.91 1756.7 1275.04 1756.91 1275.16 1757.13 1275.25 1757.37 1275.3 1757.64 1275.36 1757.9 1275.41 1758.23 1275.46 1758.63 1275.52 1759.02 1275.54 1759.5 1275.54 1760.07 1275.54 1760.68 1275.52 1761.21 1275.46 1761.65 1275.41 1762.1 1275.32 1762.47 1275.2 1762.75 1275.07 1763.04 1274.92 1763.24 1274.74 1763.37 1274.57 1763.49 1274.37 1763.56 1274.16 1763.56 1273.84 1763.56 1273.37 1763.36 1272.77 1762.97 1272.16 1762.57 1271.38 1762.16 1270.42 1761.71 1269.46 1761.26 1268.33 1760.84 1267.03 1760.45 1265.73 1760.06 1264.25 1759.86 1262.57 1759.86 1261.08 1759.86 1259.76 1760.03 1258.62 1760.37 1257.49 1760.71 1256.55 1761.19 1255.82 1761.82 1255.09 1762.44 1254.54 1763.18 1254.17 1764.04 1253.79 1764.9 1253.61 1765.83 1253.61 1766.83 1253.61 1768.22 1253.96 1769.39 1254.68 1770.34 1255.39 1771.28 1256.31 1772.11 1257.45 1772.83 1258.59 1773.54 1259.89 1774.19 1261.35 1774.76 1262.81 1775.33 1264.29 1775.92 1265.8 1776.53 1267.32 1777.13 1268.81 1777.81 1270.29 1778.56 1271.76 1779.31 1273.07 1780.22 1274.21 1781.3 1275.35 1782.37 1276.27 1783.65 1276.96 1785.15 1277.65 1786.65 1278 1788.44 1278 1790.51 1278 1792.98 1277.55 1795.18 1276.64 1797.1 1275.73 1799.03 1274.44 1800.66 1272.77 1801.98 1271.1 1803.3 1269.1 1804.3 1266.79 1804.98 1264.48 1805.66 1261.93 1806 1259.16 1806 1257.45 1806 1255.82 1805.87 1254.27 1805.6 1252.73 1805.33 1251.34 1804.99 1250.11 1804.58 1248.88 1804.17 1247.84 1803.74 1246.99 1803.29 1246.14 1802.85 1245.51 1802.45 1245.12 1802.09 1244.73 1801.73 1244.44 1801.23 1244.27 1800.59 1244.09 1799.94 1244 1799.07 1244 1797.96 1244 1797.28 1244.04 1796.71 1244.11 1796.25 1244.18 1795.78 1244.27 1795.41 1244.37 1795.12 1244.48 1794.84 1244.63 1794.63 1244.83 1794.51 1245.02 1794.38 1245.25 1794.32 1245.49 1794.32 1245.89 1794.32 1246.46 1794.56 1247.23 1795.04 1247.99 1795.52 1248.94 1796.05 1250.06 1796.62 1251.18 1797.19 1252.5 1797.72 1254.03 1798.2 1255.56 1798.69 1257.33 1798.93 1259.32 1798.93 1260.81 1798.93 1262.17 1798.77 1263.38 1798.44 1264.58 1798.12 1265.63 1797.65 1266.52 1797.02 1267.41 1796.4 1268.1 1795.6 1268.58 1794.64 1269.06 1793.67 1269.3 1792.53 1269.3 1791.21 1269.3 1789.85 1268.95 1788.71 1268.26 1787.78 1267.57 1786.85 1266.65 1786.03 1265.51 1785.31 1264.37 1784.6 1263.09 1783.97 1261.67 1783.41 1260.24 1782.86 1258.78 1782.28 1257.26 1781.67 1255.75 1781.06 1254.27 1780.38 1252.83 1779.61 1251.39 1778.84 1250.1 1777.9 1248.96 1776.79 1247.83 1775.69 1246.91 1774.36 1246.22 1772.83 1245.52 1771.29 1245.17 1769.45 1245.17 1767.31 1245.17 1765.41 1245.54 1763.6 1246.27 1761.87 1247 1760.14 1248.09 1758.62 1249.55 1757.31 1251.01 1756.01 1252.83 1754.97 1255.02 1754.18 1257.21 1753.39 1259.76 1753 1262.68 1753Z" fill-rule="evenodd"/><path d="M1365.68 1753C1366.96 1753 1368.24 1753.11 1369.52 1753.32 1370.81 1753.54 1371.96 1753.8 1372.99 1754.13 1374.03 1754.45 1374.91 1754.8 1375.64 1755.17 1376.37 1755.55 1376.92 1755.88 1377.29 1756.16 1377.66 1756.45 1377.91 1756.7 1378.04 1756.91 1378.16 1757.13 1378.25 1757.37 1378.3 1757.64 1378.36 1757.9 1378.41 1758.23 1378.46 1758.63 1378.52 1759.02 1378.54 1759.5 1378.54 1760.07 1378.54 1760.68 1378.52 1761.21 1378.46 1761.65 1378.41 1762.1 1378.32 1762.47 1378.2 1762.75 1378.07 1763.04 1377.92 1763.24 1377.74 1763.37 1377.57 1763.49 1377.37 1763.56 1377.16 1763.56 1376.84 1763.56 1376.37 1763.36 1375.77 1762.97 1375.16 1762.57 1374.38 1762.16 1373.42 1761.71 1372.46 1761.26 1371.33 1760.84 1370.03 1760.45 1368.73 1760.06 1367.25 1759.86 1365.57 1759.86 1364.08 1759.86 1362.76 1760.03 1361.62 1760.37 1360.49 1760.71 1359.55 1761.19 1358.82 1761.82 1358.09 1762.44 1357.54 1763.18 1357.17 1764.04 1356.79 1764.9 1356.61 1765.83 1356.61 1766.83 1356.61 1768.22 1356.96 1769.39 1357.68 1770.34 1358.39 1771.28 1359.31 1772.11 1360.45 1772.83 1361.59 1773.54 1362.89 1774.19 1364.35 1774.76 1365.81 1775.33 1367.29 1775.92 1368.8 1776.53 1370.32 1777.13 1371.81 1777.81 1373.29 1778.56 1374.76 1779.31 1376.07 1780.22 1377.21 1781.3 1378.35 1782.37 1379.27 1783.65 1379.96 1785.15 1380.65 1786.65 1381 1788.44 1381 1790.51 1381 1792.98 1380.55 1795.18 1379.64 1797.1 1378.73 1799.03 1377.44 1800.66 1375.77 1801.98 1374.1 1803.3 1372.1 1804.3 1369.79 1804.98 1367.48 1805.66 1364.93 1806 1362.16 1806 1360.45 1806 1358.82 1805.87 1357.27 1805.6 1355.73 1805.33 1354.34 1804.99 1353.11 1804.58 1351.88 1804.17 1350.84 1803.74 1349.99 1803.29 1349.14 1802.85 1348.51 1802.45 1348.12 1802.09 1347.73 1801.73 1347.45 1801.23 1347.27 1800.59 1347.09 1799.94 1347 1799.07 1347 1797.96 1347 1797.28 1347.04 1796.71 1347.11 1796.25 1347.18 1795.78 1347.27 1795.41 1347.37 1795.12 1347.48 1794.84 1347.63 1794.63 1347.83 1794.51 1348.02 1794.38 1348.25 1794.32 1348.49 1794.32 1348.89 1794.32 1349.46 1794.56 1350.23 1795.04 1350.99 1795.52 1351.94 1796.05 1353.06 1796.62 1354.18 1797.19 1355.5 1797.72 1357.03 1798.2 1358.56 1798.69 1360.33 1798.93 1362.32 1798.93 1363.81 1798.93 1365.17 1798.77 1366.38 1798.44 1367.58 1798.12 1368.63 1797.65 1369.52 1797.02 1370.41 1796.4 1371.1 1795.6 1371.58 1794.64 1372.06 1793.67 1372.3 1792.53 1372.3 1791.21 1372.3 1789.85 1371.95 1788.71 1371.26 1787.78 1370.57 1786.85 1369.65 1786.03 1368.51 1785.31 1367.37 1784.6 1366.09 1783.97 1364.67 1783.41 1363.24 1782.86 1361.78 1782.28 1360.26 1781.67 1358.75 1781.06 1357.27 1780.38 1355.83 1779.61 1354.39 1778.84 1353.1 1777.9 1351.96 1776.79 1350.83 1775.69 1349.91 1774.36 1349.22 1772.83 1348.52 1771.29 1348.17 1769.45 1348.17 1767.31 1348.17 1765.41 1348.54 1763.6 1349.27 1761.87 1350 1760.14 1351.09 1758.62 1352.55 1757.31 1354.01 1756.01 1355.83 1754.97 1358.02 1754.18 1360.21 1753.39 1362.76 1753 1365.68 1753Z" fill-rule="evenodd"/><path d="M1296.49 1754C1297.36 1754 1298.08 1754.03 1298.66 1754.08 1299.23 1754.13 1299.69 1754.24 1300.04 1754.4 1300.38 1754.56 1300.62 1754.74 1300.77 1754.93 1300.91 1755.13 1300.98 1755.37 1300.98 1755.65L1300.98 1783.6C1300.98 1786.41 1301.19 1788.66 1301.61 1790.35 1302.02 1792.04 1302.65 1793.48 1303.5 1794.67 1304.35 1795.86 1305.42 1796.78 1306.72 1797.44 1308.02 1798.1 1309.54 1798.43 1311.27 1798.43 1313.51 1798.43 1315.73 1797.64 1317.95 1796.08 1320.17 1794.52 1322.53 1792.22 1325.02 1789.2L1325.02 1755.65C1325.02 1755.37 1325.08 1755.13 1325.21 1754.93 1325.33 1754.74 1325.57 1754.56 1325.94 1754.4 1326.3 1754.24 1326.76 1754.13 1327.32 1754.08 1327.88 1754.03 1328.61 1754 1329.51 1754 1330.37 1754 1331.1 1754.03 1331.67 1754.08 1332.25 1754.13 1332.7 1754.24 1333.03 1754.4 1333.35 1754.56 1333.59 1754.74 1333.76 1754.93 1333.92 1755.13 1334 1755.37 1334 1755.65L1334 1803.65C1334 1803.94 1333.94 1804.18 1333.81 1804.37 1333.68 1804.57 1333.46 1804.74 1333.13 1804.88 1332.81 1805.02 1332.39 1805.13 1331.86 1805.2 1331.34 1805.27 1330.7 1805.31 1329.94 1805.31 1329.11 1805.31 1328.43 1805.27 1327.91 1805.2 1327.39 1805.13 1326.97 1805.02 1326.67 1804.88 1326.36 1804.74 1326.15 1804.57 1326.04 1804.37 1325.94 1804.18 1325.88 1803.94 1325.88 1803.65L1325.88 1797.31C1323.1 1800.33 1320.36 1802.53 1317.65 1803.92 1314.95 1805.31 1312.21 1806 1309.43 1806 1306.18 1806 1303.45 1805.47 1301.23 1804.4 1299.01 1803.33 1297.21 1801.88 1295.84 1800.05 1294.47 1798.22 1293.49 1796.09 1292.89 1793.65 1292.3 1791.22 1292 1788.26 1292 1784.77L1292 1755.65C1292 1755.37 1292.06 1755.13 1292.19 1754.93 1292.32 1754.74 1292.56 1754.56 1292.92 1754.4 1293.28 1754.24 1293.75 1754.13 1294.33 1754.08 1294.9 1754.03 1295.63 1754 1296.49 1754Z" fill-rule="evenodd"/></g></svg>