<svg xmlns="http://www.w3.org/2000/svg" viewBox="0 0 931.55 583.87"><defs><style>.cls-1{font-size:32px;}.cls-1,.cls-10,.cls-6{fill:#1d1d1b;}.cls-1,.cls-6{font-family:Arial, Arial;}.cls-2{letter-spacing:-0.06em;}.cls-3{letter-spacing:-0.02em;}.cls-4{fill:#00983a;}.cls-10,.cls-11,.cls-12,.cls-13,.cls-14,.cls-15,.cls-16,.cls-17,.cls-4,.cls-5,.cls-7,.cls-8,.cls-9{stroke:#3c3c3b;stroke-miterlimit:10;}.cls-10,.cls-11,.cls-12,.cls-13,.cls-14,.cls-17,.cls-4,.cls-7,.cls-8,.cls-9{stroke-width:2px;}.cls-16,.cls-5{fill:#fff;}.cls-6{font-size:20px;}.cls-7{fill:#ffde00;}.cls-8{fill:#4d63ac;}.cls-9{fill:#e52528;}.cls-11{fill:#ededed;}.cls-12{fill:#dadada;}.cls-13{fill:#ea5b0c;}.cls-14{fill:#e1398d;}.cls-15{fill:#f6b4bd;}.cls-16{stroke-width:5px;}.cls-17{fill:#82368c;}.cls-18{letter-spacing:-0.07em;}.cls-19{letter-spacing:-0.04em;}</style></defs><g id="Layer_2" data-name="Layer 2"><g id="Layer_1-2" data-name="Layer 1"><text class="cls-1" transform="translate(32.03 378.9)">DCS</text><text class="cls-1" transform="translate(122.73 378.9)">DN<tspan class="cls-2" x="46.22" y="0">A</tspan><tspan x="65.8" y="0" xml:space="preserve"> control strand</tspan></text><text class="cls-1" transform="translate(104.92 378.9)">:</text><text class="cls-1" transform="translate(0.05 417.7)">AMX-F</text><text class="cls-1" transform="translate(122.73 417.15)">Adapter mix F</text><text class="cls-1" transform="translate(104.92 417.15)">:</text><text class="cls-1" transform="translate(614.22 417.7)">LBII</text><text class="cls-1" transform="translate(694.91 417.15)">Loading beads II</text><text class="cls-1" transform="translate(676.86 417.15)">:</text><text class="cls-1" transform="translate(628.46 378.9)">EB</text><text class="cls-1" transform="translate(694.91 378.9)">Elution bu<tspan class="cls-3" x="142.33" y="0">f</tspan><tspan x="150.64" y="0">fer</tspan></text><text class="cls-1" transform="translate(676.86 378.9)">:</text><text class="cls-1" transform="translate(37.35 456.14)">LNB</text><text class="cls-1" transform="translate(122.73 455.58)">Ligation bu<tspan class="cls-3" x="156.58" y="0">f</tspan><tspan x="164.89" y="0">fer</tspan></text><text class="cls-1" transform="translate(104.92 455.58)">:</text><path class="cls-4" d="M201.26,38.29A42.88,42.88,0,1,1,153.15,1.37,42.87,42.87,0,0,1,201.26,38.29Z"/><path class="cls-5" d="M191.06,39.63a32.59,32.59,0,1,1-36.57-28.06A32.59,32.59,0,0,1,191.06,39.63Z"/><text class="cls-6" transform="translate(134.21 42.22)">AMX-<tspan x="18.89" y="24">F</tspan></text><path class="cls-7" d="M96.39,38.29A42.88,42.88,0,1,1,48.27,1.37,42.88,42.88,0,0,1,96.39,38.29Z"/><path class="cls-5" d="M86.19,39.63A32.59,32.59,0,1,1,49.62,11.57,32.6,32.6,0,0,1,86.19,39.63Z"/><text class="cls-6" transform="translate(32.19 49.22)">DCS</text><path class="cls-8" d="M96.39,259.57a42.88,42.88,0,1,1-48.12-36.92A42.88,42.88,0,0,1,96.39,259.57Z"/><path class="cls-5" d="M86.19,260.91a32.59,32.59,0,1,1-36.57-28.06A32.6,32.6,0,0,1,86.19,260.91Z"/><text class="cls-6" transform="translate(41.09 270.5)">FB</text><path class="cls-9" d="M148.83,149a42.89,42.89,0,1,1-48.12-36.92A42.9,42.9,0,0,1,148.83,149Z"/><path class="cls-5" d="M138.63,150.34a32.6,32.6,0,1,1-36.58-28.06A32.61,32.61,0,0,1,138.63,150.34Z"/><text class="cls-6" transform="translate(87.41 159.93)">SBII</text><path class="cls-10" d="M253.7,149a42.88,42.88,0,1,1-48.11-36.92A42.9,42.9,0,0,1,253.7,149Z"/><path class="cls-5" d="M243.5,150.34a32.59,32.59,0,1,1-36.57-28.06A32.6,32.6,0,0,1,243.5,150.34Z"/><text class="cls-6" transform="translate(197.85 159.93)">EB</text><path class="cls-11" d="M306.14,38.29A42.88,42.88,0,1,1,258,1.37,42.88,42.88,0,0,1,306.14,38.29Z"/><path class="cls-5" d="M295.94,39.63a32.59,32.59,0,1,1-36.57-28.06A32.59,32.59,0,0,1,295.94,39.63Z"/><text class="cls-6" transform="translate(244.17 49.22)">LNB</text><path class="cls-12" d="M620.77,38.29A42.88,42.88,0,1,1,572.66,1.37,42.88,42.88,0,0,1,620.77,38.29Z"/><path class="cls-5" d="M610.57,39.63A32.59,32.59,0,1,1,574,11.57,32.59,32.59,0,0,1,610.57,39.63Z"/><text class="cls-6" transform="translate(558.81 49.22)">SFB</text><path class="cls-12" d="M725.65,38.29A42.88,42.88,0,1,1,677.53,1.37,42.88,42.88,0,0,1,725.65,38.29Z"/><path class="cls-5" d="M715.45,39.63a32.59,32.59,0,1,1-36.57-28.06A32.6,32.6,0,0,1,715.45,39.63Z"/><text class="cls-6" transform="translate(663.68 49.22)">SFB</text><text class="cls-1" transform="translate(632 455.58)">LS</text><text class="cls-1" transform="translate(694.91 455.58)">Loading solution</text><text class="cls-1" transform="translate(676.86 455.58)">:</text><path class="cls-13" d="M411,38.29A42.88,42.88,0,1,1,362.9,1.37,42.88,42.88,0,0,1,411,38.29Z"/><path class="cls-5" d="M400.82,39.63a32.59,32.59,0,1,1-36.57-28.06A32.6,32.6,0,0,1,400.82,39.63Z"/><text class="cls-6" transform="translate(350.16 49.22)">LFB</text><path class="cls-13" d="M515.89,38.29A42.88,42.88,0,1,1,467.78,1.37,42.87,42.87,0,0,1,515.89,38.29Z"/><path class="cls-5" d="M505.69,39.63a32.59,32.59,0,1,1-36.57-28.06A32.59,32.59,0,0,1,505.69,39.63Z"/><text class="cls-6" transform="translate(455.04 49.22)">LFB</text><path class="cls-14" d="M358.58,149a42.88,42.88,0,1,1-48.11-36.92A42.9,42.9,0,0,1,358.58,149Z"/><path class="cls-5" d="M348.38,150.34a32.59,32.59,0,1,1-36.57-28.06A32.61,32.61,0,0,1,348.38,150.34Z"/><text class="cls-6" transform="translate(298.27 159.93)">LBII</text><path class="cls-11" d="M463.46,149a42.89,42.89,0,1,1-48.12-36.92A42.9,42.9,0,0,1,463.46,149Z"/><path class="cls-15" d="M453.26,150.34a32.6,32.6,0,1,1-36.57-28.06A32.61,32.61,0,0,1,453.26,150.34Z"/><text class="cls-6" transform="translate(408.71 161.03)">LS</text><path class="cls-16" d="M673.21,149a42.88,42.88,0,1,1-48.11-36.92A42.9,42.9,0,0,1,673.21,149Z"/><path class="cls-16" d="M568.33,149a42.88,42.88,0,1,1-48.11-36.92A42.9,42.9,0,0,1,568.33,149Z"/><path class="cls-8" d="M201.26,259.57a42.88,42.88,0,1,1-48.11-36.92A42.87,42.87,0,0,1,201.26,259.57Z"/><path class="cls-5" d="M191.06,260.91a32.59,32.59,0,1,1-36.57-28.06A32.59,32.59,0,0,1,191.06,260.91Z"/><text class="cls-6" transform="translate(145.97 270.5)">FB</text><path class="cls-8" d="M306.14,259.57A42.88,42.88,0,1,1,258,222.65,42.88,42.88,0,0,1,306.14,259.57Z"/><path class="cls-5" d="M295.94,260.91a32.59,32.59,0,1,1-36.57-28.06A32.59,32.59,0,0,1,295.94,260.91Z"/><text class="cls-6" transform="translate(250.85 270.5)">FB</text><path class="cls-8" d="M411,259.57a42.88,42.88,0,1,1-48.12-36.92A42.88,42.88,0,0,1,411,259.57Z"/><path class="cls-5" d="M400.82,260.91a32.59,32.59,0,1,1-36.57-28.06A32.6,32.6,0,0,1,400.82,260.91Z"/><text class="cls-6" transform="translate(355.72 270.5)">FB</text><path class="cls-8" d="M515.89,259.57a42.88,42.88,0,1,1-48.11-36.92A42.87,42.87,0,0,1,515.89,259.57Z"/><path class="cls-5" d="M505.69,260.91a32.59,32.59,0,1,1-36.57-28.06A32.59,32.59,0,0,1,505.69,260.91Z"/><text class="cls-6" transform="translate(460.6 270.5)">FB</text><path class="cls-8" d="M620.77,259.57a42.88,42.88,0,1,1-48.11-36.92A42.88,42.88,0,0,1,620.77,259.57Z"/><path class="cls-5" d="M610.57,260.91A32.59,32.59,0,1,1,574,232.85,32.59,32.59,0,0,1,610.57,260.91Z"/><text class="cls-6" transform="translate(565.48 270.5)">FB</text><path class="cls-11" d="M725.65,259.57a42.88,42.88,0,1,1-48.12-36.92A42.88,42.88,0,0,1,725.65,259.57Z"/><path class="cls-17" d="M715.45,260.91a32.59,32.59,0,1,1-36.57-28.06A32.6,32.6,0,0,1,715.45,260.91Z"/><text class="cls-6" transform="translate(666.28 270.5)">F<tspan class="cls-18" x="12.22" y="0">L</tspan><tspan class="cls-3" x="21.86" y="0">T</tspan></text><text class="cls-1" transform="translate(40.91 494.76)">LFB</text><text class="cls-1" transform="translate(122.73 494.75)"><tspan class="cls-19">L</tspan><tspan x="16.61" y="0" xml:space="preserve"> fragment bu</tspan><tspan class="cls-3" x="196.27" y="0">f</tspan><tspan x="204.58" y="0">fer</tspan></text><text class="cls-1" transform="translate(104.92 494.76)">:</text><text class="cls-1" transform="translate(37.36 534.12)">SFB</text><text class="cls-1" transform="translate(122.73 534.12)">S fragment bu<tspan class="cls-3" x="201" y="0">f</tspan><tspan x="209.31" y="0">fer</tspan></text><text class="cls-1" transform="translate(103.69 534.12)">:</text><text class="cls-1" transform="translate(39.13 573.48)">SBII</text><text class="cls-1" transform="translate(122.73 573.48)">Sequencing bu<tspan class="cls-3" x="213.52" y="0">f</tspan><tspan x="221.83" y="0">fer II</tspan></text><text class="cls-1" transform="translate(103.69 573.48)">:</text><text class="cls-1" transform="translate(630.25 494.76)">FB</text><text class="cls-1" transform="translate(694.91 494.75)">Flush bu<tspan class="cls-3" x="122.73" y="0">f</tspan><tspan x="131.05" y="0">fer</tspan></text><text class="cls-1" transform="translate(676.86 494.75)">:</text><text class="cls-1" transform="translate(617.21 534.12)">F<tspan class="cls-18" x="19.55" y="0">L</tspan><tspan class="cls-3" x="34.97" y="0">T</tspan></text><text class="cls-1" transform="translate(694.91 534.12)">Flush tether</text><text class="cls-1" transform="translate(676.86 534.12)">:</text></g></g></svg>